<?xml version="1.0" encoding="utf-8" standalone="no"?>
<!DOCTYPE svg PUBLIC "-//W3C//DTD SVG 1.1//EN"
  "http://www.w3.org/Graphics/SVG/1.1/DTD/svg11.dtd">
<svg xmlns:xlink="http://www.w3.org/1999/xlink" width="792pt" height="460.8pt" viewBox="0 0 792 460.8" xmlns="http://www.w3.org/2000/svg" version="1.1">
 <metadata>
  <rdf:RDF xmlns:dc="http://purl.org/dc/elements/1.1/" xmlns:cc="http://creativecommons.org/ns#" xmlns:rdf="http://www.w3.org/1999/02/22-rdf-syntax-ns#">
   <cc:Work>
    <dc:type rdf:resource="http://purl.org/dc/dcmitype/StillImage"/>
    <dc:date>2026-07-21T02:46:29.501988</dc:date>
    <dc:format>image/svg+xml</dc:format>
    <dc:creator>
     <cc:Agent>
      <dc:title>Matplotlib v3.11.1, https://matplotlib.org/</dc:title>
     </cc:Agent>
    </dc:creator>
   </cc:Work>
  </rdf:RDF>
 </metadata>
 <defs>
  <style type="text/css">*{stroke-linejoin: round; stroke-linecap: butt}</style>
 </defs>
 <g id="figure_1">
  <g id="patch_1">
   <path d="M 0 460.8 
L 792 460.8 
L 792 0 
L 0 0 
z
" style="fill: #0c0e14"/>
  </g>
  <g id="axes_1">
   <g id="patch_2">
    <path d="M 51.24 216.346828 
L 388.022483 216.346828 
L 388.022483 64.952 
L 51.24 64.952 
z
" style="fill: #0c0e14"/>
   </g>
   <g id="matplotlib.axis_1">
    <g id="xtick_1">
     <g id="line2d_1">
      <defs>
       <path id="m5e92dad079" d="M 0 0 
L 0 3.5 
" style="stroke: #8b94a8; stroke-width: 0.8"/>
      </defs>
      <g>
       <use xlink:href="#m5e92dad079" x="66.548295" y="216.346828" style="fill: #8b94a8; stroke: #8b94a8; stroke-width: 0.8"/>
      </g>
     </g>
     <g id="text_1">
      <!-- 0 -->
      <g style="fill: #8b94a8" transform="translate(63.367045 230.944484) scale(0.1 -0.1)">
       <defs>
        <path id="DejaVuSans-13" d="M 2034 4250 
Q 1547 4250 1301 3770 
Q 1056 3291 1056 2328 
Q 1056 1369 1301 889 
Q 1547 409 2034 409 
Q 2525 409 2770 889 
Q 3016 1369 3016 2328 
Q 3016 3291 2770 3770 
Q 2525 4250 2034 4250 
z
M 2034 4750 
Q 2819 4750 3233 4129 
Q 3647 3509 3647 2328 
Q 3647 1150 3233 529 
Q 2819 -91 2034 -91 
Q 1250 -91 836 529 
Q 422 1150 422 2328 
Q 422 3509 836 4129 
Q 1250 4750 2034 4750 
z
" transform="scale(0.015625)"/>
       </defs>
       <use xlink:href="#DejaVuSans-13"/>
      </g>
     </g>
    </g>
    <g id="xtick_2">
     <g id="line2d_2">
      <g>
       <use xlink:href="#m5e92dad079" x="104.819031" y="216.346828" style="fill: #8b94a8; stroke: #8b94a8; stroke-width: 0.8"/>
      </g>
     </g>
     <g id="text_2">
      <!-- 5 -->
      <g style="fill: #8b94a8" transform="translate(101.637781 230.944484) scale(0.1 -0.1)">
       <defs>
        <path id="DejaVuSans-18" d="M 691 4666 
L 3169 4666 
L 3169 4134 
L 1269 4134 
L 1269 2991 
Q 1406 3038 1543 3061 
Q 1681 3084 1819 3084 
Q 2600 3084 3056 2656 
Q 3513 2228 3513 1497 
Q 3513 744 3044 326 
Q 2575 -91 1722 -91 
Q 1428 -91 1123 -41 
Q 819 9 494 109 
L 494 744 
Q 775 591 1075 516 
Q 1375 441 1709 441 
Q 2250 441 2565 725 
Q 2881 1009 2881 1497 
Q 2881 1984 2565 2268 
Q 2250 2553 1709 2553 
Q 1456 2553 1204 2497 
Q 953 2441 691 2322 
L 691 4666 
z
" transform="scale(0.015625)"/>
       </defs>
       <use xlink:href="#DejaVuSans-18"/>
      </g>
     </g>
    </g>
    <g id="xtick_3">
     <g id="line2d_3">
      <g>
       <use xlink:href="#m5e92dad079" x="143.089768" y="216.346828" style="fill: #8b94a8; stroke: #8b94a8; stroke-width: 0.8"/>
      </g>
     </g>
     <g id="text_3">
      <!-- 10 -->
      <g style="fill: #8b94a8" transform="translate(136.727268 230.944484) scale(0.1 -0.1)">
       <defs>
        <path id="DejaVuSans-14" d="M 794 531 
L 1825 531 
L 1825 4091 
L 703 3866 
L 703 4441 
L 1819 4666 
L 2450 4666 
L 2450 531 
L 3481 531 
L 3481 0 
L 794 0 
L 794 531 
z
" transform="scale(0.015625)"/>
       </defs>
       <use xlink:href="#DejaVuSans-14"/>
       <use xlink:href="#DejaVuSans-13" transform="translate(63.625 0)"/>
      </g>
     </g>
    </g>
    <g id="xtick_4">
     <g id="line2d_4">
      <g>
       <use xlink:href="#m5e92dad079" x="181.360505" y="216.346828" style="fill: #8b94a8; stroke: #8b94a8; stroke-width: 0.8"/>
      </g>
     </g>
     <g id="text_4">
      <!-- 15 -->
      <g style="fill: #8b94a8" transform="translate(174.998005 230.944484) scale(0.1 -0.1)">
       <use xlink:href="#DejaVuSans-14"/>
       <use xlink:href="#DejaVuSans-18" transform="translate(63.625 0)"/>
      </g>
     </g>
    </g>
    <g id="xtick_5">
     <g id="line2d_5">
      <g>
       <use xlink:href="#m5e92dad079" x="219.631242" y="216.346828" style="fill: #8b94a8; stroke: #8b94a8; stroke-width: 0.8"/>
      </g>
     </g>
     <g id="text_5">
      <!-- 20 -->
      <g style="fill: #8b94a8" transform="translate(213.268742 230.944484) scale(0.1 -0.1)">
       <defs>
        <path id="DejaVuSans-15" d="M 1228 531 
L 3431 531 
L 3431 0 
L 469 0 
L 469 531 
Q 828 903 1448 1529 
Q 2069 2156 2228 2338 
Q 2531 2678 2651 2914 
Q 2772 3150 2772 3378 
Q 2772 3750 2511 3984 
Q 2250 4219 1831 4219 
Q 1534 4219 1204 4116 
Q 875 4013 500 3803 
L 500 4441 
Q 881 4594 1212 4672 
Q 1544 4750 1819 4750 
Q 2544 4750 2975 4387 
Q 3406 4025 3406 3419 
Q 3406 3131 3298 2873 
Q 3191 2616 2906 2266 
Q 2828 2175 2409 1742 
Q 1991 1309 1228 531 
z
" transform="scale(0.015625)"/>
       </defs>
       <use xlink:href="#DejaVuSans-15"/>
       <use xlink:href="#DejaVuSans-13" transform="translate(63.625 0)"/>
      </g>
     </g>
    </g>
    <g id="xtick_6">
     <g id="line2d_6">
      <g>
       <use xlink:href="#m5e92dad079" x="257.901978" y="216.346828" style="fill: #8b94a8; stroke: #8b94a8; stroke-width: 0.8"/>
      </g>
     </g>
     <g id="text_6">
      <!-- 25 -->
      <g style="fill: #8b94a8" transform="translate(251.539478 230.944484) scale(0.1 -0.1)">
       <use xlink:href="#DejaVuSans-15"/>
       <use xlink:href="#DejaVuSans-18" transform="translate(63.625 0)"/>
      </g>
     </g>
    </g>
    <g id="xtick_7">
     <g id="line2d_7">
      <g>
       <use xlink:href="#m5e92dad079" x="296.172715" y="216.346828" style="fill: #8b94a8; stroke: #8b94a8; stroke-width: 0.8"/>
      </g>
     </g>
     <g id="text_7">
      <!-- 30 -->
      <g style="fill: #8b94a8" transform="translate(289.810215 230.944484) scale(0.1 -0.1)">
       <defs>
        <path id="DejaVuSans-16" d="M 2597 2516 
Q 3050 2419 3304 2112 
Q 3559 1806 3559 1356 
Q 3559 666 3084 287 
Q 2609 -91 1734 -91 
Q 1441 -91 1130 -33 
Q 819 25 488 141 
L 488 750 
Q 750 597 1062 519 
Q 1375 441 1716 441 
Q 2309 441 2620 675 
Q 2931 909 2931 1356 
Q 2931 1769 2642 2001 
Q 2353 2234 1838 2234 
L 1294 2234 
L 1294 2753 
L 1863 2753 
Q 2328 2753 2575 2939 
Q 2822 3125 2822 3475 
Q 2822 3834 2567 4026 
Q 2313 4219 1838 4219 
Q 1578 4219 1281 4162 
Q 984 4106 628 3988 
L 628 4550 
Q 988 4650 1302 4700 
Q 1616 4750 1894 4750 
Q 2613 4750 3031 4423 
Q 3450 4097 3450 3541 
Q 3450 3153 3228 2886 
Q 3006 2619 2597 2516 
z
" transform="scale(0.015625)"/>
       </defs>
       <use xlink:href="#DejaVuSans-16"/>
       <use xlink:href="#DejaVuSans-13" transform="translate(63.625 0)"/>
      </g>
     </g>
    </g>
    <g id="xtick_8">
     <g id="line2d_8">
      <g>
       <use xlink:href="#m5e92dad079" x="334.443452" y="216.346828" style="fill: #8b94a8; stroke: #8b94a8; stroke-width: 0.8"/>
      </g>
     </g>
     <g id="text_8">
      <!-- 35 -->
      <g style="fill: #8b94a8" transform="translate(328.080952 230.944484) scale(0.1 -0.1)">
       <use xlink:href="#DejaVuSans-16"/>
       <use xlink:href="#DejaVuSans-18" transform="translate(63.625 0)"/>
      </g>
     </g>
    </g>
    <g id="xtick_9">
     <g id="line2d_9">
      <g>
       <use xlink:href="#m5e92dad079" x="372.714188" y="216.346828" style="fill: #8b94a8; stroke: #8b94a8; stroke-width: 0.8"/>
      </g>
     </g>
     <g id="text_9">
      <!-- 40 -->
      <g style="fill: #8b94a8" transform="translate(366.351688 230.944484) scale(0.1 -0.1)">
       <defs>
        <path id="DejaVuSans-17" d="M 2419 4116 
L 825 1625 
L 2419 1625 
L 2419 4116 
z
M 2253 4666 
L 3047 4666 
L 3047 1625 
L 3713 1625 
L 3713 1100 
L 3047 1100 
L 3047 0 
L 2419 0 
L 2419 1100 
L 313 1100 
L 313 1709 
L 2253 4666 
z
" transform="scale(0.015625)"/>
       </defs>
       <use xlink:href="#DejaVuSans-17"/>
       <use xlink:href="#DejaVuSans-13" transform="translate(63.625 0)"/>
      </g>
     </g>
    </g>
   </g>
   <g id="matplotlib.axis_2">
    <g id="ytick_1">
     <g id="line2d_10">
      <defs>
       <path id="m5176b7cbe1" d="M 0 0 
L -3.5 0 
" style="stroke: #8b94a8; stroke-width: 0.8"/>
      </defs>
      <g>
       <use xlink:href="#m5176b7cbe1" x="51.24" y="216.346828" style="fill: #8b94a8; stroke: #8b94a8; stroke-width: 0.8"/>
      </g>
     </g>
     <g id="text_10">
      <!-- 0 -->
      <g style="fill: #8b94a8" transform="translate(37.8775 220.145656) scale(0.1 -0.1)">
       <use xlink:href="#DejaVuSans-13"/>
      </g>
     </g>
    </g>
    <g id="ytick_2">
     <g id="line2d_11">
      <g>
       <use xlink:href="#m5176b7cbe1" x="51.24" y="193.408218" style="fill: #8b94a8; stroke: #8b94a8; stroke-width: 0.8"/>
      </g>
     </g>
     <g id="text_11">
      <!-- 25 -->
      <g style="fill: #8b94a8" transform="translate(31.515 197.207046) scale(0.1 -0.1)">
       <use xlink:href="#DejaVuSans-15"/>
       <use xlink:href="#DejaVuSans-18" transform="translate(63.625 0)"/>
      </g>
     </g>
    </g>
    <g id="ytick_3">
     <g id="line2d_12">
      <g>
       <use xlink:href="#m5176b7cbe1" x="51.24" y="170.469607" style="fill: #8b94a8; stroke: #8b94a8; stroke-width: 0.8"/>
      </g>
     </g>
     <g id="text_12">
      <!-- 50 -->
      <g style="fill: #8b94a8" transform="translate(31.515 174.268436) scale(0.1 -0.1)">
       <use xlink:href="#DejaVuSans-18"/>
       <use xlink:href="#DejaVuSans-13" transform="translate(63.625 0)"/>
      </g>
     </g>
    </g>
    <g id="ytick_4">
     <g id="line2d_13">
      <g>
       <use xlink:href="#m5176b7cbe1" x="51.24" y="147.530997" style="fill: #8b94a8; stroke: #8b94a8; stroke-width: 0.8"/>
      </g>
     </g>
     <g id="text_13">
      <!-- 75 -->
      <g style="fill: #8b94a8" transform="translate(31.515 151.329825) scale(0.1 -0.1)">
       <defs>
        <path id="DejaVuSans-1a" d="M 525 4666 
L 3525 4666 
L 3525 4397 
L 1831 0 
L 1172 0 
L 2766 4134 
L 525 4134 
L 525 4666 
z
" transform="scale(0.015625)"/>
       </defs>
       <use xlink:href="#DejaVuSans-1a"/>
       <use xlink:href="#DejaVuSans-18" transform="translate(63.625 0)"/>
      </g>
     </g>
    </g>
    <g id="ytick_5">
     <g id="line2d_14">
      <g>
       <use xlink:href="#m5176b7cbe1" x="51.24" y="124.592387" style="fill: #8b94a8; stroke: #8b94a8; stroke-width: 0.8"/>
      </g>
     </g>
     <g id="text_14">
      <!-- 100 -->
      <g style="fill: #8b94a8" transform="translate(25.1525 128.391215) scale(0.1 -0.1)">
       <use xlink:href="#DejaVuSans-14"/>
       <use xlink:href="#DejaVuSans-13" transform="translate(63.625 0)"/>
       <use xlink:href="#DejaVuSans-13" transform="translate(127.25 0)"/>
      </g>
     </g>
    </g>
    <g id="ytick_6">
     <g id="line2d_15">
      <g>
       <use xlink:href="#m5176b7cbe1" x="51.24" y="101.653777" style="fill: #8b94a8; stroke: #8b94a8; stroke-width: 0.8"/>
      </g>
     </g>
     <g id="text_15">
      <!-- 125 -->
      <g style="fill: #8b94a8" transform="translate(25.1525 105.452605) scale(0.1 -0.1)">
       <use xlink:href="#DejaVuSans-14"/>
       <use xlink:href="#DejaVuSans-15" transform="translate(63.625 0)"/>
       <use xlink:href="#DejaVuSans-18" transform="translate(127.25 0)"/>
      </g>
     </g>
    </g>
    <g id="ytick_7">
     <g id="line2d_16">
      <g>
       <use xlink:href="#m5176b7cbe1" x="51.24" y="78.715166" style="fill: #8b94a8; stroke: #8b94a8; stroke-width: 0.8"/>
      </g>
     </g>
     <g id="text_16">
      <!-- 150 -->
      <g style="fill: #8b94a8" transform="translate(25.1525 82.513994) scale(0.1 -0.1)">
       <use xlink:href="#DejaVuSans-14"/>
       <use xlink:href="#DejaVuSans-18" transform="translate(63.625 0)"/>
       <use xlink:href="#DejaVuSans-13" transform="translate(127.25 0)"/>
      </g>
     </g>
    </g>
    <g id="text_17">
     <!-- watts -->
     <g style="fill: #8b94a8" transform="translate(18.750156 154.327539) rotate(-90) scale(0.1 -0.1)">
      <defs>
       <path id="DejaVuSans-5a" d="M 269 3500 
L 844 3500 
L 1563 769 
L 2278 3500 
L 2956 3500 
L 3675 769 
L 4391 3500 
L 4966 3500 
L 4050 0 
L 3372 0 
L 2619 2869 
L 1863 0 
L 1184 0 
L 269 3500 
z
" transform="scale(0.015625)"/>
       <path id="DejaVuSans-44" d="M 2194 1759 
Q 1497 1759 1228 1600 
Q 959 1441 959 1056 
Q 959 750 1161 570 
Q 1363 391 1709 391 
Q 2188 391 2477 730 
Q 2766 1069 2766 1631 
L 2766 1759 
L 2194 1759 
z
M 3341 1997 
L 3341 0 
L 2766 0 
L 2766 531 
Q 2569 213 2275 61 
Q 1981 -91 1556 -91 
Q 1019 -91 701 211 
Q 384 513 384 1019 
Q 384 1609 779 1909 
Q 1175 2209 1959 2209 
L 2766 2209 
L 2766 2266 
Q 2766 2663 2505 2880 
Q 2244 3097 1772 3097 
Q 1472 3097 1187 3025 
Q 903 2953 641 2809 
L 641 3341 
Q 956 3463 1253 3523 
Q 1550 3584 1831 3584 
Q 2591 3584 2966 3190 
Q 3341 2797 3341 1997 
z
" transform="scale(0.015625)"/>
       <path id="DejaVuSans-57" d="M 1172 4494 
L 1172 3500 
L 2356 3500 
L 2356 3053 
L 1172 3053 
L 1172 1153 
Q 1172 725 1289 603 
Q 1406 481 1766 481 
L 2356 481 
L 2356 0 
L 1766 0 
Q 1100 0 847 248 
Q 594 497 594 1153 
L 594 3053 
L 172 3053 
L 172 3500 
L 594 3500 
L 594 4494 
L 1172 4494 
z
" transform="scale(0.015625)"/>
       <path id="DejaVuSans-56" d="M 2834 3397 
L 2834 2853 
Q 2591 2978 2328 3040 
Q 2066 3103 1784 3103 
Q 1356 3103 1142 2972 
Q 928 2841 928 2578 
Q 928 2378 1081 2264 
Q 1234 2150 1697 2047 
L 1894 2003 
Q 2506 1872 2764 1633 
Q 3022 1394 3022 966 
Q 3022 478 2636 193 
Q 2250 -91 1575 -91 
Q 1294 -91 989 -36 
Q 684 19 347 128 
L 347 722 
Q 666 556 975 473 
Q 1284 391 1588 391 
Q 1994 391 2212 530 
Q 2431 669 2431 922 
Q 2431 1156 2273 1281 
Q 2116 1406 1581 1522 
L 1381 1569 
Q 847 1681 609 1914 
Q 372 2147 372 2553 
Q 372 3047 722 3315 
Q 1072 3584 1716 3584 
Q 2034 3584 2315 3537 
Q 2597 3491 2834 3397 
z
" transform="scale(0.015625)"/>
      </defs>
      <use xlink:href="#DejaVuSans-5a"/>
      <use xlink:href="#DejaVuSans-44" transform="translate(81.78125 0)"/>
      <use xlink:href="#DejaVuSans-57" transform="translate(143.0625 0)"/>
      <use xlink:href="#DejaVuSans-57" transform="translate(182.265625 0)"/>
      <use xlink:href="#DejaVuSans-56" transform="translate(221.46875 0)"/>
     </g>
    </g>
   </g>
   <g id="line2d_17">
    <path d="M 66.548295 205.840945 
L 70.375368 205.840945 
L 74.202442 205.831769 
L 78.029516 205.730839 
L 81.856589 205.712488 
L 85.683663 205.712488 
L 89.510737 205.712488 
L 93.33781 205.776716 
L 97.164884 205.776716 
L 100.991958 202.74882 
L 104.819031 199.528239 
L 108.646105 191.774989 
L 112.473179 191.573129 
L 116.300252 191.49055 
L 120.127326 191.499725 
L 123.9544 191.664883 
L 127.781473 191.674059 
L 131.608547 191.453848 
L 135.435621 191.463024 
L 139.262694 191.49055 
L 143.089768 191.536427 
L 146.916842 191.49055 
L 150.743915 191.426322 
L 154.570989 191.380445 
L 158.398063 191.472199 
L 162.225136 191.453848 
L 166.05221 191.307041 
L 169.879284 191.279515 
L 173.706357 191.297866 
L 177.533431 191.407971 
L 181.360505 191.444673 
L 185.187578 191.481375 
L 189.014652 191.334567 
L 192.841726 191.307041 
L 196.668799 191.371269 
L 200.495873 191.527252 
L 204.322947 191.499725 
L 208.150021 191.28869 
L 211.977094 191.251988 
L 215.804168 191.316217 
L 219.631242 191.463024 
L 223.458315 191.472199 
L 227.285389 191.307041 
L 231.112463 191.251988 
L 234.939536 191.270339 
L 238.76661 191.380445 
L 242.593684 191.362094 
L 246.420757 191.453848 
L 250.247831 191.499725 
L 254.074905 190.600532 
L 257.901978 187.857074 
L 261.729052 185.783424 
L 265.556126 177.387892 
L 269.383199 169.07494 
L 273.210273 168.212448 
L 277.037347 169.221747 
L 280.86442 168.735449 
L 284.691494 168.781326 
L 288.518568 170.52466 
L 292.345641 170.139291 
L 296.172715 170.772397 
L 299.999789 169.616291 
L 303.826862 174.213189 
L 307.653936 180.599298 
L 311.48101 182.315106 
L 315.308083 177.75491 
L 319.135157 175.947348 
L 322.962231 175.433523 
L 326.789304 174.772891 
L 330.616378 174.112259 
L 334.443452 174.525154 
L 338.270525 175.295891 
L 342.097599 175.470225 
L 345.924673 174.589382 
L 349.751746 174.690312 
L 353.57882 175.020628 
L 357.405894 174.919698 
L 361.232967 174.763715 
L 365.060041 174.571031 
L 368.887115 174.359996 
L 372.714188 179.296385 
" clip-path="url(#p55193b880a)" style="fill: none; stroke: #4ea8ff; stroke-width: 1.2; stroke-linecap: square"/>
   </g>
   <g id="line2d_18">
    <path d="M 51.24 69.539722 
L 388.022483 69.539722 
" clip-path="url(#p55193b880a)" style="fill: none; stroke-dasharray: 0.8,1.32; stroke-dashoffset: 0; stroke: #ff5b6e; stroke-width: 0.8"/>
   </g>
   <g id="patch_3">
    <path d="M 51.24 216.346828 
L 51.24 64.952 
" style="fill: none; stroke: #2a3145; stroke-width: 0.8; stroke-linejoin: miter; stroke-linecap: square"/>
   </g>
   <g id="patch_4">
    <path d="M 388.022483 216.346828 
L 388.022483 64.952 
" style="fill: none; stroke: #2a3145; stroke-width: 0.8; stroke-linejoin: miter; stroke-linecap: square"/>
   </g>
   <g id="patch_5">
    <path d="M 51.24 216.346828 
L 388.022483 216.346828 
" style="fill: none; stroke: #2a3145; stroke-width: 0.8; stroke-linejoin: miter; stroke-linecap: square"/>
   </g>
   <g id="patch_6">
    <path d="M 51.24 64.952 
L 388.022483 64.952 
" style="fill: none; stroke: #2a3145; stroke-width: 0.8; stroke-linejoin: miter; stroke-linecap: square"/>
   </g>
   <g id="text_18">
    <!-- 160 W board limit -->
    <g style="fill: #ff5b6e" transform="translate(68.079124 76.880077) scale(0.07 -0.07)">
     <defs>
      <path id="DejaVuSans-19" d="M 2113 2584 
Q 1688 2584 1439 2293 
Q 1191 2003 1191 1497 
Q 1191 994 1439 701 
Q 1688 409 2113 409 
Q 2538 409 2786 701 
Q 3034 994 3034 1497 
Q 3034 2003 2786 2293 
Q 2538 2584 2113 2584 
z
M 3366 4563 
L 3366 3988 
Q 3128 4100 2886 4159 
Q 2644 4219 2406 4219 
Q 1781 4219 1451 3797 
Q 1122 3375 1075 2522 
Q 1259 2794 1537 2939 
Q 1816 3084 2150 3084 
Q 2853 3084 3261 2657 
Q 3669 2231 3669 1497 
Q 3669 778 3244 343 
Q 2819 -91 2113 -91 
Q 1303 -91 875 529 
Q 447 1150 447 2328 
Q 447 3434 972 4092 
Q 1497 4750 2381 4750 
Q 2619 4750 2861 4703 
Q 3103 4656 3366 4563 
z
" transform="scale(0.015625)"/>
      <path id="DejaVuSans-3" transform="scale(0.015625)"/>
      <path id="DejaVuSans-3a" d="M 213 4666 
L 850 4666 
L 1831 722 
L 2809 4666 
L 3519 4666 
L 4500 722 
L 5478 4666 
L 6119 4666 
L 4947 0 
L 4153 0 
L 3169 4050 
L 2175 0 
L 1381 0 
L 213 4666 
z
" transform="scale(0.015625)"/>
      <path id="DejaVuSans-45" d="M 3116 1747 
Q 3116 2381 2855 2742 
Q 2594 3103 2138 3103 
Q 1681 3103 1420 2742 
Q 1159 2381 1159 1747 
Q 1159 1113 1420 752 
Q 1681 391 2138 391 
Q 2594 391 2855 752 
Q 3116 1113 3116 1747 
z
M 1159 2969 
Q 1341 3281 1617 3432 
Q 1894 3584 2278 3584 
Q 2916 3584 3314 3078 
Q 3713 2572 3713 1747 
Q 3713 922 3314 415 
Q 2916 -91 2278 -91 
Q 1894 -91 1617 61 
Q 1341 213 1159 525 
L 1159 0 
L 581 0 
L 581 4863 
L 1159 4863 
L 1159 2969 
z
" transform="scale(0.015625)"/>
      <path id="DejaVuSans-52" d="M 1959 3097 
Q 1497 3097 1228 2736 
Q 959 2375 959 1747 
Q 959 1119 1226 758 
Q 1494 397 1959 397 
Q 2419 397 2687 759 
Q 2956 1122 2956 1747 
Q 2956 2369 2687 2733 
Q 2419 3097 1959 3097 
z
M 1959 3584 
Q 2709 3584 3137 3096 
Q 3566 2609 3566 1747 
Q 3566 888 3137 398 
Q 2709 -91 1959 -91 
Q 1206 -91 779 398 
Q 353 888 353 1747 
Q 353 2609 779 3096 
Q 1206 3584 1959 3584 
z
" transform="scale(0.015625)"/>
      <path id="DejaVuSans-55" d="M 2631 2963 
Q 2534 3019 2420 3045 
Q 2306 3072 2169 3072 
Q 1681 3072 1420 2755 
Q 1159 2438 1159 1844 
L 1159 0 
L 581 0 
L 581 3500 
L 1159 3500 
L 1159 2956 
Q 1341 3275 1631 3429 
Q 1922 3584 2338 3584 
Q 2397 3584 2469 3576 
Q 2541 3569 2628 3553 
L 2631 2963 
z
" transform="scale(0.015625)"/>
      <path id="DejaVuSans-47" d="M 2906 2969 
L 2906 4863 
L 3481 4863 
L 3481 0 
L 2906 0 
L 2906 525 
Q 2725 213 2448 61 
Q 2172 -91 1784 -91 
Q 1150 -91 751 415 
Q 353 922 353 1747 
Q 353 2572 751 3078 
Q 1150 3584 1784 3584 
Q 2172 3584 2448 3432 
Q 2725 3281 2906 2969 
z
M 947 1747 
Q 947 1113 1208 752 
Q 1469 391 1925 391 
Q 2381 391 2643 752 
Q 2906 1113 2906 1747 
Q 2906 2381 2643 2742 
Q 2381 3103 1925 3103 
Q 1469 3103 1208 2742 
Q 947 2381 947 1747 
z
" transform="scale(0.015625)"/>
      <path id="DejaVuSans-4f" d="M 603 4863 
L 1178 4863 
L 1178 0 
L 603 0 
L 603 4863 
z
" transform="scale(0.015625)"/>
      <path id="DejaVuSans-4c" d="M 603 3500 
L 1178 3500 
L 1178 0 
L 603 0 
L 603 3500 
z
M 603 4863 
L 1178 4863 
L 1178 4134 
L 603 4134 
L 603 4863 
z
" transform="scale(0.015625)"/>
      <path id="DejaVuSans-50" d="M 3328 2828 
Q 3544 3216 3844 3400 
Q 4144 3584 4550 3584 
Q 5097 3584 5394 3201 
Q 5691 2819 5691 2113 
L 5691 0 
L 5113 0 
L 5113 2094 
Q 5113 2597 4934 2840 
Q 4756 3084 4391 3084 
Q 3944 3084 3684 2787 
Q 3425 2491 3425 1978 
L 3425 0 
L 2847 0 
L 2847 2094 
Q 2847 2600 2669 2842 
Q 2491 3084 2119 3084 
Q 1678 3084 1418 2786 
Q 1159 2488 1159 1978 
L 1159 0 
L 581 0 
L 581 3500 
L 1159 3500 
L 1159 2956 
Q 1356 3278 1631 3431 
Q 1906 3584 2284 3584 
Q 2666 3584 2933 3390 
Q 3200 3197 3328 2828 
z
" transform="scale(0.015625)"/>
     </defs>
     <use xlink:href="#DejaVuSans-14"/>
     <use xlink:href="#DejaVuSans-19" transform="translate(63.625 0)"/>
     <use xlink:href="#DejaVuSans-13" transform="translate(127.25 0)"/>
     <use xlink:href="#DejaVuSans-3" transform="translate(190.875 0)"/>
     <use xlink:href="#DejaVuSans-3a" transform="translate(222.65625 0)"/>
     <use xlink:href="#DejaVuSans-3" transform="translate(321.53125 0)"/>
     <use xlink:href="#DejaVuSans-45" transform="translate(353.3125 0)"/>
     <use xlink:href="#DejaVuSans-52" transform="translate(416.796875 0)"/>
     <use xlink:href="#DejaVuSans-44" transform="translate(477.984375 0)"/>
     <use xlink:href="#DejaVuSans-55" transform="translate(539.265625 0)"/>
     <use xlink:href="#DejaVuSans-47" transform="translate(578.625 0)"/>
     <use xlink:href="#DejaVuSans-3" transform="translate(642.109375 0)"/>
     <use xlink:href="#DejaVuSans-4f" transform="translate(673.890625 0)"/>
     <use xlink:href="#DejaVuSans-4c" transform="translate(701.671875 0)"/>
     <use xlink:href="#DejaVuSans-50" transform="translate(729.453125 0)"/>
     <use xlink:href="#DejaVuSans-4c" transform="translate(826.859375 0)"/>
     <use xlink:href="#DejaVuSans-57" transform="translate(854.640625 0)"/>
    </g>
   </g>
   <g id="text_19">
    <!-- fast int4: GPU power draw -->
    <g style="fill: #e7ecf5" transform="translate(154.116398 58.952) scale(0.1 -0.1)">
     <defs>
      <path id="DejaVuSans-49" d="M 2375 4863 
L 2375 4384 
L 1825 4384 
Q 1516 4384 1395 4259 
Q 1275 4134 1275 3809 
L 1275 3500 
L 2222 3500 
L 2222 3053 
L 1275 3053 
L 1275 0 
L 697 0 
L 697 3053 
L 147 3053 
L 147 3500 
L 697 3500 
L 697 3744 
Q 697 4328 969 4595 
Q 1241 4863 1831 4863 
L 2375 4863 
z
" transform="scale(0.015625)"/>
      <path id="DejaVuSans-51" d="M 3513 2113 
L 3513 0 
L 2938 0 
L 2938 2094 
Q 2938 2591 2744 2837 
Q 2550 3084 2163 3084 
Q 1697 3084 1428 2787 
Q 1159 2491 1159 1978 
L 1159 0 
L 581 0 
L 581 3500 
L 1159 3500 
L 1159 2956 
Q 1366 3272 1645 3428 
Q 1925 3584 2291 3584 
Q 2894 3584 3203 3211 
Q 3513 2838 3513 2113 
z
" transform="scale(0.015625)"/>
      <path id="DejaVuSans-1d" d="M 750 794 
L 1409 794 
L 1409 0 
L 750 0 
L 750 794 
z
M 750 3309 
L 1409 3309 
L 1409 2516 
L 750 2516 
L 750 3309 
z
" transform="scale(0.015625)"/>
      <path id="DejaVuSans-2a" d="M 3809 666 
L 3809 1919 
L 2778 1919 
L 2778 2438 
L 4434 2438 
L 4434 434 
Q 4069 175 3628 42 
Q 3188 -91 2688 -91 
Q 1594 -91 976 548 
Q 359 1188 359 2328 
Q 359 3472 976 4111 
Q 1594 4750 2688 4750 
Q 3144 4750 3555 4637 
Q 3966 4525 4313 4306 
L 4313 3634 
Q 3963 3931 3569 4081 
Q 3175 4231 2741 4231 
Q 1884 4231 1454 3753 
Q 1025 3275 1025 2328 
Q 1025 1384 1454 906 
Q 1884 428 2741 428 
Q 3075 428 3337 486 
Q 3600 544 3809 666 
z
" transform="scale(0.015625)"/>
      <path id="DejaVuSans-33" d="M 1259 4147 
L 1259 2394 
L 2053 2394 
Q 2494 2394 2734 2622 
Q 2975 2850 2975 3272 
Q 2975 3691 2734 3919 
Q 2494 4147 2053 4147 
L 1259 4147 
z
M 628 4666 
L 2053 4666 
Q 2838 4666 3239 4311 
Q 3641 3956 3641 3272 
Q 3641 2581 3239 2228 
Q 2838 1875 2053 1875 
L 1259 1875 
L 1259 0 
L 628 0 
L 628 4666 
z
" transform="scale(0.015625)"/>
      <path id="DejaVuSans-38" d="M 556 4666 
L 1191 4666 
L 1191 1831 
Q 1191 1081 1462 751 
Q 1734 422 2344 422 
Q 2950 422 3222 751 
Q 3494 1081 3494 1831 
L 3494 4666 
L 4128 4666 
L 4128 1753 
Q 4128 841 3676 375 
Q 3225 -91 2344 -91 
Q 1459 -91 1007 375 
Q 556 841 556 1753 
L 556 4666 
z
" transform="scale(0.015625)"/>
      <path id="DejaVuSans-53" d="M 1159 525 
L 1159 -1331 
L 581 -1331 
L 581 3500 
L 1159 3500 
L 1159 2969 
Q 1341 3281 1617 3432 
Q 1894 3584 2278 3584 
Q 2916 3584 3314 3078 
Q 3713 2572 3713 1747 
Q 3713 922 3314 415 
Q 2916 -91 2278 -91 
Q 1894 -91 1617 61 
Q 1341 213 1159 525 
z
M 3116 1747 
Q 3116 2381 2855 2742 
Q 2594 3103 2138 3103 
Q 1681 3103 1420 2742 
Q 1159 2381 1159 1747 
Q 1159 1113 1420 752 
Q 1681 391 2138 391 
Q 2594 391 2855 752 
Q 3116 1113 3116 1747 
z
" transform="scale(0.015625)"/>
      <path id="DejaVuSans-48" d="M 3597 1894 
L 3597 1613 
L 953 1613 
Q 991 1019 1311 708 
Q 1631 397 2203 397 
Q 2534 397 2845 478 
Q 3156 559 3463 722 
L 3463 178 
Q 3153 47 2828 -22 
Q 2503 -91 2169 -91 
Q 1331 -91 842 396 
Q 353 884 353 1716 
Q 353 2575 817 3079 
Q 1281 3584 2069 3584 
Q 2775 3584 3186 3129 
Q 3597 2675 3597 1894 
z
M 3022 2063 
Q 3016 2534 2758 2815 
Q 2500 3097 2075 3097 
Q 1594 3097 1305 2825 
Q 1016 2553 972 2059 
L 3022 2063 
z
" transform="scale(0.015625)"/>
     </defs>
     <use xlink:href="#DejaVuSans-49"/>
     <use xlink:href="#DejaVuSans-44" transform="translate(35.203125 0)"/>
     <use xlink:href="#DejaVuSans-56" transform="translate(96.484375 0)"/>
     <use xlink:href="#DejaVuSans-57" transform="translate(148.578125 0)"/>
     <use xlink:href="#DejaVuSans-3" transform="translate(187.78125 0)"/>
     <use xlink:href="#DejaVuSans-4c" transform="translate(219.5625 0)"/>
     <use xlink:href="#DejaVuSans-51" transform="translate(247.34375 0)"/>
     <use xlink:href="#DejaVuSans-57" transform="translate(310.71875 0)"/>
     <use xlink:href="#DejaVuSans-17" transform="translate(349.921875 0)"/>
     <use xlink:href="#DejaVuSans-1d" transform="translate(413.546875 0)"/>
     <use xlink:href="#DejaVuSans-3" transform="translate(447.234375 0)"/>
     <use xlink:href="#DejaVuSans-2a" transform="translate(479.015625 0)"/>
     <use xlink:href="#DejaVuSans-33" transform="translate(556.5 0)"/>
     <use xlink:href="#DejaVuSans-38" transform="translate(616.796875 0)"/>
     <use xlink:href="#DejaVuSans-3" transform="translate(689.984375 0)"/>
     <use xlink:href="#DejaVuSans-53" transform="translate(721.765625 0)"/>
     <use xlink:href="#DejaVuSans-52" transform="translate(785.25 0)"/>
     <use xlink:href="#DejaVuSans-5a" transform="translate(846.4375 0)"/>
     <use xlink:href="#DejaVuSans-48" transform="translate(928.21875 0)"/>
     <use xlink:href="#DejaVuSans-55" transform="translate(989.75 0)"/>
     <use xlink:href="#DejaVuSans-3" transform="translate(1030.859375 0)"/>
     <use xlink:href="#DejaVuSans-47" transform="translate(1062.640625 0)"/>
     <use xlink:href="#DejaVuSans-55" transform="translate(1126.125 0)"/>
     <use xlink:href="#DejaVuSans-44" transform="translate(1167.234375 0)"/>
     <use xlink:href="#DejaVuSans-5a" transform="translate(1228.515625 0)"/>
    </g>
   </g>
  </g>
  <g id="axes_2">
   <g id="patch_7">
    <path d="M 439.262483 216.346828 
L 776.044966 216.346828 
L 776.044966 64.952 
L 439.262483 64.952 
z
" style="fill: #0c0e14"/>
   </g>
   <g id="matplotlib.axis_3">
    <g id="xtick_10">
     <g id="line2d_19">
      <g>
       <use xlink:href="#m5e92dad079" x="454.570778" y="216.346828" style="fill: #8b94a8; stroke: #8b94a8; stroke-width: 0.8"/>
      </g>
     </g>
     <g id="text_20">
      <!-- 0 -->
      <g style="fill: #8b94a8" transform="translate(451.389528 230.944484) scale(0.1 -0.1)">
       <use xlink:href="#DejaVuSans-13"/>
      </g>
     </g>
    </g>
    <g id="xtick_11">
     <g id="line2d_20">
      <g>
       <use xlink:href="#m5e92dad079" x="500.26718" y="216.346828" style="fill: #8b94a8; stroke: #8b94a8; stroke-width: 0.8"/>
      </g>
     </g>
     <g id="text_21">
      <!-- 10 -->
      <g style="fill: #8b94a8" transform="translate(493.90468 230.944484) scale(0.1 -0.1)">
       <use xlink:href="#DejaVuSans-14"/>
       <use xlink:href="#DejaVuSans-13" transform="translate(63.625 0)"/>
      </g>
     </g>
    </g>
    <g id="xtick_12">
     <g id="line2d_21">
      <g>
       <use xlink:href="#m5e92dad079" x="545.963582" y="216.346828" style="fill: #8b94a8; stroke: #8b94a8; stroke-width: 0.8"/>
      </g>
     </g>
     <g id="text_22">
      <!-- 20 -->
      <g style="fill: #8b94a8" transform="translate(539.601082 230.944484) scale(0.1 -0.1)">
       <use xlink:href="#DejaVuSans-15"/>
       <use xlink:href="#DejaVuSans-13" transform="translate(63.625 0)"/>
      </g>
     </g>
    </g>
    <g id="xtick_13">
     <g id="line2d_22">
      <g>
       <use xlink:href="#m5e92dad079" x="591.659984" y="216.346828" style="fill: #8b94a8; stroke: #8b94a8; stroke-width: 0.8"/>
      </g>
     </g>
     <g id="text_23">
      <!-- 30 -->
      <g style="fill: #8b94a8" transform="translate(585.297484 230.944484) scale(0.1 -0.1)">
       <use xlink:href="#DejaVuSans-16"/>
       <use xlink:href="#DejaVuSans-13" transform="translate(63.625 0)"/>
      </g>
     </g>
    </g>
    <g id="xtick_14">
     <g id="line2d_23">
      <g>
       <use xlink:href="#m5e92dad079" x="637.356386" y="216.346828" style="fill: #8b94a8; stroke: #8b94a8; stroke-width: 0.8"/>
      </g>
     </g>
     <g id="text_24">
      <!-- 40 -->
      <g style="fill: #8b94a8" transform="translate(630.993886 230.944484) scale(0.1 -0.1)">
       <use xlink:href="#DejaVuSans-17"/>
       <use xlink:href="#DejaVuSans-13" transform="translate(63.625 0)"/>
      </g>
     </g>
    </g>
    <g id="xtick_15">
     <g id="line2d_24">
      <g>
       <use xlink:href="#m5e92dad079" x="683.052788" y="216.346828" style="fill: #8b94a8; stroke: #8b94a8; stroke-width: 0.8"/>
      </g>
     </g>
     <g id="text_25">
      <!-- 50 -->
      <g style="fill: #8b94a8" transform="translate(676.690288 230.944484) scale(0.1 -0.1)">
       <use xlink:href="#DejaVuSans-18"/>
       <use xlink:href="#DejaVuSans-13" transform="translate(63.625 0)"/>
      </g>
     </g>
    </g>
    <g id="xtick_16">
     <g id="line2d_25">
      <g>
       <use xlink:href="#m5e92dad079" x="728.74919" y="216.346828" style="fill: #8b94a8; stroke: #8b94a8; stroke-width: 0.8"/>
      </g>
     </g>
     <g id="text_26">
      <!-- 60 -->
      <g style="fill: #8b94a8" transform="translate(722.38669 230.944484) scale(0.1 -0.1)">
       <use xlink:href="#DejaVuSans-19"/>
       <use xlink:href="#DejaVuSans-13" transform="translate(63.625 0)"/>
      </g>
     </g>
    </g>
    <g id="xtick_17">
     <g id="line2d_26">
      <g>
       <use xlink:href="#m5e92dad079" x="774.445592" y="216.346828" style="fill: #8b94a8; stroke: #8b94a8; stroke-width: 0.8"/>
      </g>
     </g>
     <g id="text_27">
      <!-- 70 -->
      <g style="fill: #8b94a8" transform="translate(768.083092 230.944484) scale(0.1 -0.1)">
       <use xlink:href="#DejaVuSans-1a"/>
       <use xlink:href="#DejaVuSans-13" transform="translate(63.625 0)"/>
      </g>
     </g>
    </g>
   </g>
   <g id="matplotlib.axis_4">
    <g id="ytick_8">
     <g id="line2d_27">
      <g>
       <use xlink:href="#m5176b7cbe1" x="439.262483" y="216.346828" style="fill: #8b94a8; stroke: #8b94a8; stroke-width: 0.8"/>
      </g>
     </g>
     <g id="text_28">
      <!-- 0 -->
      <g style="fill: #8b94a8" transform="translate(425.899983 220.145656) scale(0.1 -0.1)">
       <use xlink:href="#DejaVuSans-13"/>
      </g>
     </g>
    </g>
    <g id="ytick_9">
     <g id="line2d_28">
      <g>
       <use xlink:href="#m5176b7cbe1" x="439.262483" y="193.408218" style="fill: #8b94a8; stroke: #8b94a8; stroke-width: 0.8"/>
      </g>
     </g>
     <g id="text_29">
      <!-- 25 -->
      <g style="fill: #8b94a8" transform="translate(419.537483 197.207046) scale(0.1 -0.1)">
       <use xlink:href="#DejaVuSans-15"/>
       <use xlink:href="#DejaVuSans-18" transform="translate(63.625 0)"/>
      </g>
     </g>
    </g>
    <g id="ytick_10">
     <g id="line2d_29">
      <g>
       <use xlink:href="#m5176b7cbe1" x="439.262483" y="170.469607" style="fill: #8b94a8; stroke: #8b94a8; stroke-width: 0.8"/>
      </g>
     </g>
     <g id="text_30">
      <!-- 50 -->
      <g style="fill: #8b94a8" transform="translate(419.537483 174.268436) scale(0.1 -0.1)">
       <use xlink:href="#DejaVuSans-18"/>
       <use xlink:href="#DejaVuSans-13" transform="translate(63.625 0)"/>
      </g>
     </g>
    </g>
    <g id="ytick_11">
     <g id="line2d_30">
      <g>
       <use xlink:href="#m5176b7cbe1" x="439.262483" y="147.530997" style="fill: #8b94a8; stroke: #8b94a8; stroke-width: 0.8"/>
      </g>
     </g>
     <g id="text_31">
      <!-- 75 -->
      <g style="fill: #8b94a8" transform="translate(419.537483 151.329825) scale(0.1 -0.1)">
       <use xlink:href="#DejaVuSans-1a"/>
       <use xlink:href="#DejaVuSans-18" transform="translate(63.625 0)"/>
      </g>
     </g>
    </g>
    <g id="ytick_12">
     <g id="line2d_31">
      <g>
       <use xlink:href="#m5176b7cbe1" x="439.262483" y="124.592387" style="fill: #8b94a8; stroke: #8b94a8; stroke-width: 0.8"/>
      </g>
     </g>
     <g id="text_32">
      <!-- 100 -->
      <g style="fill: #8b94a8" transform="translate(413.174983 128.391215) scale(0.1 -0.1)">
       <use xlink:href="#DejaVuSans-14"/>
       <use xlink:href="#DejaVuSans-13" transform="translate(63.625 0)"/>
       <use xlink:href="#DejaVuSans-13" transform="translate(127.25 0)"/>
      </g>
     </g>
    </g>
    <g id="ytick_13">
     <g id="line2d_32">
      <g>
       <use xlink:href="#m5176b7cbe1" x="439.262483" y="101.653777" style="fill: #8b94a8; stroke: #8b94a8; stroke-width: 0.8"/>
      </g>
     </g>
     <g id="text_33">
      <!-- 125 -->
      <g style="fill: #8b94a8" transform="translate(413.174983 105.452605) scale(0.1 -0.1)">
       <use xlink:href="#DejaVuSans-14"/>
       <use xlink:href="#DejaVuSans-15" transform="translate(63.625 0)"/>
       <use xlink:href="#DejaVuSans-18" transform="translate(127.25 0)"/>
      </g>
     </g>
    </g>
    <g id="ytick_14">
     <g id="line2d_33">
      <g>
       <use xlink:href="#m5176b7cbe1" x="439.262483" y="78.715166" style="fill: #8b94a8; stroke: #8b94a8; stroke-width: 0.8"/>
      </g>
     </g>
     <g id="text_34">
      <!-- 150 -->
      <g style="fill: #8b94a8" transform="translate(413.174983 82.513994) scale(0.1 -0.1)">
       <use xlink:href="#DejaVuSans-14"/>
       <use xlink:href="#DejaVuSans-18" transform="translate(63.625 0)"/>
       <use xlink:href="#DejaVuSans-13" transform="translate(127.25 0)"/>
      </g>
     </g>
    </g>
    <g id="text_35">
     <!-- watts -->
     <g style="fill: #8b94a8" transform="translate(406.772639 154.327539) rotate(-90) scale(0.1 -0.1)">
      <use xlink:href="#DejaVuSans-5a"/>
      <use xlink:href="#DejaVuSans-44" transform="translate(81.78125 0)"/>
      <use xlink:href="#DejaVuSans-57" transform="translate(143.0625 0)"/>
      <use xlink:href="#DejaVuSans-57" transform="translate(182.265625 0)"/>
      <use xlink:href="#DejaVuSans-56" transform="translate(221.46875 0)"/>
     </g>
    </g>
   </g>
   <g id="line2d_34">
    <path d="M 454.570778 185.104441 
L 456.855598 183.966686 
L 459.140418 183.893282 
L 461.425238 186.710144 
L 463.710058 186.73767 
L 465.994878 189.811444 
L 468.279698 191.958498 
L 470.564518 191.958498 
L 472.849339 198.61987 
L 475.134159 197.280255 
L 477.418979 192.958621 
L 479.703799 191.233638 
L 481.988619 191.49055 
L 484.273439 191.563954 
L 493.412719 191.352918 
L 495.69754 191.527252 
L 513.9761 191.435497 
L 516.26092 191.178585 
L 518.545741 191.096006 
L 523.115381 191.316217 
L 539.109121 191.554778 
L 543.678762 191.518076 
L 550.533222 191.536427 
L 561.957323 191.417146 
L 566.526963 191.453848 
L 577.951063 191.307041 
L 580.235883 189.288443 
L 582.520703 186.297249 
L 587.090344 185.049388 
L 589.375164 183.260177 
L 591.659984 184.407107 
L 593.944804 186.53581 
L 596.229624 187.710267 
L 598.514444 187.847899 
L 600.799264 187.811197 
L 603.084084 187.655214 
L 607.653725 187.701092 
L 609.938545 187.86625 
L 612.223365 187.710267 
L 614.508185 187.811197 
L 616.793005 187.545109 
L 623.647465 187.701092 
L 628.217105 187.508407 
L 630.501926 187.572635 
L 632.786746 187.820372 
L 635.071566 187.710267 
L 637.356386 187.967179 
L 639.641206 187.783671 
L 641.926026 187.893776 
L 644.210846 187.545109 
L 646.495666 187.646039 
L 648.780486 187.600162 
L 651.065306 187.893776 
L 653.350127 187.636863 
L 655.634947 187.636863 
L 657.919767 187.444179 
L 660.204587 187.581811 
L 662.489407 187.251495 
L 664.774227 187.067986 
L 667.059047 187.205618 
L 669.343867 187.012933 
L 671.628687 186.994582 
L 673.913508 186.801898 
L 676.198328 187.031284 
L 678.483148 187.104688 
L 680.767968 186.921179 
L 685.337608 186.73767 
L 687.622428 187.196442 
L 692.192068 187.012933 
L 694.476888 187.15974 
L 696.761709 186.719319 
L 701.331349 187.26067 
L 703.616169 186.967056 
L 705.900989 187.123039 
L 708.185809 186.957881 
L 712.755449 186.957881 
L 717.325089 187.279021 
L 719.60991 186.921179 
L 721.89473 186.829424 
L 724.17955 186.884477 
L 726.46437 186.73767 
L 728.74919 187.251495 
L 731.03401 187.003758 
L 733.31883 187.095512 
L 735.60365 186.875302 
L 737.88847 186.783547 
L 740.17329 187.279021 
L 742.458111 187.003758 
L 744.742931 187.095512 
L 747.027751 187.012933 
L 749.312571 186.63674 
L 753.882211 187.012933 
L 756.167031 187.132214 
L 760.736671 187.049635 
L 760.736671 187.049635 
" clip-path="url(#pf7b8c689dd)" style="fill: none; stroke: #3ad29f; stroke-width: 1.2; stroke-linecap: square"/>
   </g>
   <g id="line2d_35">
    <path d="M 439.262483 69.539722 
L 776.044966 69.539722 
" clip-path="url(#pf7b8c689dd)" style="fill: none; stroke-dasharray: 0.8,1.32; stroke-dashoffset: 0; stroke: #ff5b6e; stroke-width: 0.8"/>
   </g>
   <g id="patch_8">
    <path d="M 439.262483 216.346828 
L 439.262483 64.952 
" style="fill: none; stroke: #2a3145; stroke-width: 0.8; stroke-linejoin: miter; stroke-linecap: square"/>
   </g>
   <g id="patch_9">
    <path d="M 776.044966 216.346828 
L 776.044966 64.952 
" style="fill: none; stroke: #2a3145; stroke-width: 0.8; stroke-linejoin: miter; stroke-linecap: square"/>
   </g>
   <g id="patch_10">
    <path d="M 439.262483 216.346828 
L 776.044966 216.346828 
" style="fill: none; stroke: #2a3145; stroke-width: 0.8; stroke-linejoin: miter; stroke-linecap: square"/>
   </g>
   <g id="patch_11">
    <path d="M 439.262483 64.952 
L 776.044966 64.952 
" style="fill: none; stroke: #2a3145; stroke-width: 0.8; stroke-linejoin: miter; stroke-linecap: square"/>
   </g>
   <g id="text_36">
    <!-- 160 W board limit -->
    <g style="fill: #ff5b6e" transform="translate(455.484706 76.880077) scale(0.07 -0.07)">
     <use xlink:href="#DejaVuSans-14"/>
     <use xlink:href="#DejaVuSans-19" transform="translate(63.625 0)"/>
     <use xlink:href="#DejaVuSans-13" transform="translate(127.25 0)"/>
     <use xlink:href="#DejaVuSans-3" transform="translate(190.875 0)"/>
     <use xlink:href="#DejaVuSans-3a" transform="translate(222.65625 0)"/>
     <use xlink:href="#DejaVuSans-3" transform="translate(321.53125 0)"/>
     <use xlink:href="#DejaVuSans-45" transform="translate(353.3125 0)"/>
     <use xlink:href="#DejaVuSans-52" transform="translate(416.796875 0)"/>
     <use xlink:href="#DejaVuSans-44" transform="translate(477.984375 0)"/>
     <use xlink:href="#DejaVuSans-55" transform="translate(539.265625 0)"/>
     <use xlink:href="#DejaVuSans-47" transform="translate(578.625 0)"/>
     <use xlink:href="#DejaVuSans-3" transform="translate(642.109375 0)"/>
     <use xlink:href="#DejaVuSans-4f" transform="translate(673.890625 0)"/>
     <use xlink:href="#DejaVuSans-4c" transform="translate(701.671875 0)"/>
     <use xlink:href="#DejaVuSans-50" transform="translate(729.453125 0)"/>
     <use xlink:href="#DejaVuSans-4c" transform="translate(826.859375 0)"/>
     <use xlink:href="#DejaVuSans-57" transform="translate(854.640625 0)"/>
    </g>
   </g>
   <g id="text_37">
    <!-- exact BF16: GPU power draw -->
    <g style="fill: #e7ecf5" transform="translate(534.836537 58.952) scale(0.1 -0.1)">
     <defs>
      <path id="DejaVuSans-5b" d="M 3513 3500 
L 2247 1797 
L 3578 0 
L 2900 0 
L 1881 1375 
L 863 0 
L 184 0 
L 1544 1831 
L 300 3500 
L 978 3500 
L 1906 2253 
L 2834 3500 
L 3513 3500 
z
" transform="scale(0.015625)"/>
      <path id="DejaVuSans-46" d="M 3122 3366 
L 3122 2828 
Q 2878 2963 2633 3030 
Q 2388 3097 2138 3097 
Q 1578 3097 1268 2742 
Q 959 2388 959 1747 
Q 959 1106 1268 751 
Q 1578 397 2138 397 
Q 2388 397 2633 464 
Q 2878 531 3122 666 
L 3122 134 
Q 2881 22 2623 -34 
Q 2366 -91 2075 -91 
Q 1284 -91 818 406 
Q 353 903 353 1747 
Q 353 2603 823 3093 
Q 1294 3584 2113 3584 
Q 2378 3584 2631 3529 
Q 2884 3475 3122 3366 
z
" transform="scale(0.015625)"/>
      <path id="DejaVuSans-25" d="M 1259 2228 
L 1259 519 
L 2272 519 
Q 2781 519 3026 730 
Q 3272 941 3272 1375 
Q 3272 1813 3026 2020 
Q 2781 2228 2272 2228 
L 1259 2228 
z
M 1259 4147 
L 1259 2741 
L 2194 2741 
Q 2656 2741 2882 2914 
Q 3109 3088 3109 3444 
Q 3109 3797 2882 3972 
Q 2656 4147 2194 4147 
L 1259 4147 
z
M 628 4666 
L 2241 4666 
Q 2963 4666 3353 4366 
Q 3744 4066 3744 3513 
Q 3744 3084 3544 2831 
Q 3344 2578 2956 2516 
Q 3422 2416 3680 2098 
Q 3938 1781 3938 1306 
Q 3938 681 3513 340 
Q 3088 0 2303 0 
L 628 0 
L 628 4666 
z
" transform="scale(0.015625)"/>
      <path id="DejaVuSans-29" d="M 628 4666 
L 3309 4666 
L 3309 4134 
L 1259 4134 
L 1259 2759 
L 3109 2759 
L 3109 2228 
L 1259 2228 
L 1259 0 
L 628 0 
L 628 4666 
z
" transform="scale(0.015625)"/>
     </defs>
     <use xlink:href="#DejaVuSans-48"/>
     <use xlink:href="#DejaVuSans-5b" transform="translate(59.78125 0)"/>
     <use xlink:href="#DejaVuSans-44" transform="translate(118.96875 0)"/>
     <use xlink:href="#DejaVuSans-46" transform="translate(180.25 0)"/>
     <use xlink:href="#DejaVuSans-57" transform="translate(235.234375 0)"/>
     <use xlink:href="#DejaVuSans-3" transform="translate(274.4375 0)"/>
     <use xlink:href="#DejaVuSans-25" transform="translate(306.21875 0)"/>
     <use xlink:href="#DejaVuSans-29" transform="translate(374.828125 0)"/>
     <use xlink:href="#DejaVuSans-14" transform="translate(432.34375 0)"/>
     <use xlink:href="#DejaVuSans-19" transform="translate(495.96875 0)"/>
     <use xlink:href="#DejaVuSans-1d" transform="translate(559.59375 0)"/>
     <use xlink:href="#DejaVuSans-3" transform="translate(593.28125 0)"/>
     <use xlink:href="#DejaVuSans-2a" transform="translate(625.0625 0)"/>
     <use xlink:href="#DejaVuSans-33" transform="translate(702.546875 0)"/>
     <use xlink:href="#DejaVuSans-38" transform="translate(762.84375 0)"/>
     <use xlink:href="#DejaVuSans-3" transform="translate(836.03125 0)"/>
     <use xlink:href="#DejaVuSans-53" transform="translate(867.8125 0)"/>
     <use xlink:href="#DejaVuSans-52" transform="translate(931.296875 0)"/>
     <use xlink:href="#DejaVuSans-5a" transform="translate(992.484375 0)"/>
     <use xlink:href="#DejaVuSans-48" transform="translate(1074.265625 0)"/>
     <use xlink:href="#DejaVuSans-55" transform="translate(1135.796875 0)"/>
     <use xlink:href="#DejaVuSans-3" transform="translate(1176.90625 0)"/>
     <use xlink:href="#DejaVuSans-47" transform="translate(1208.6875 0)"/>
     <use xlink:href="#DejaVuSans-55" transform="translate(1272.171875 0)"/>
     <use xlink:href="#DejaVuSans-44" transform="translate(1313.28125 0)"/>
     <use xlink:href="#DejaVuSans-5a" transform="translate(1374.5625 0)"/>
    </g>
   </g>
  </g>
  <g id="axes_3">
   <g id="patch_12">
    <path d="M 51.24 409.461656 
L 388.022483 409.461656 
L 388.022483 258.066828 
L 51.24 258.066828 
z
" style="fill: #0c0e14"/>
   </g>
   <g id="matplotlib.axis_5">
    <g id="xtick_18">
     <g id="line2d_36">
      <g>
       <use xlink:href="#m5e92dad079" x="66.548295" y="409.461656" style="fill: #8b94a8; stroke: #8b94a8; stroke-width: 0.8"/>
      </g>
     </g>
     <g id="text_38">
      <!-- 0 -->
      <g style="fill: #8b94a8" transform="translate(63.367045 424.059313) scale(0.1 -0.1)">
       <use xlink:href="#DejaVuSans-13"/>
      </g>
     </g>
    </g>
    <g id="xtick_19">
     <g id="line2d_37">
      <g>
       <use xlink:href="#m5e92dad079" x="104.819031" y="409.461656" style="fill: #8b94a8; stroke: #8b94a8; stroke-width: 0.8"/>
      </g>
     </g>
     <g id="text_39">
      <!-- 5 -->
      <g style="fill: #8b94a8" transform="translate(101.637781 424.059313) scale(0.1 -0.1)">
       <use xlink:href="#DejaVuSans-18"/>
      </g>
     </g>
    </g>
    <g id="xtick_20">
     <g id="line2d_38">
      <g>
       <use xlink:href="#m5e92dad079" x="143.089768" y="409.461656" style="fill: #8b94a8; stroke: #8b94a8; stroke-width: 0.8"/>
      </g>
     </g>
     <g id="text_40">
      <!-- 10 -->
      <g style="fill: #8b94a8" transform="translate(136.727268 424.059313) scale(0.1 -0.1)">
       <use xlink:href="#DejaVuSans-14"/>
       <use xlink:href="#DejaVuSans-13" transform="translate(63.625 0)"/>
      </g>
     </g>
    </g>
    <g id="xtick_21">
     <g id="line2d_39">
      <g>
       <use xlink:href="#m5e92dad079" x="181.360505" y="409.461656" style="fill: #8b94a8; stroke: #8b94a8; stroke-width: 0.8"/>
      </g>
     </g>
     <g id="text_41">
      <!-- 15 -->
      <g style="fill: #8b94a8" transform="translate(174.998005 424.059313) scale(0.1 -0.1)">
       <use xlink:href="#DejaVuSans-14"/>
       <use xlink:href="#DejaVuSans-18" transform="translate(63.625 0)"/>
      </g>
     </g>
    </g>
    <g id="xtick_22">
     <g id="line2d_40">
      <g>
       <use xlink:href="#m5e92dad079" x="219.631242" y="409.461656" style="fill: #8b94a8; stroke: #8b94a8; stroke-width: 0.8"/>
      </g>
     </g>
     <g id="text_42">
      <!-- 20 -->
      <g style="fill: #8b94a8" transform="translate(213.268742 424.059313) scale(0.1 -0.1)">
       <use xlink:href="#DejaVuSans-15"/>
       <use xlink:href="#DejaVuSans-13" transform="translate(63.625 0)"/>
      </g>
     </g>
    </g>
    <g id="xtick_23">
     <g id="line2d_41">
      <g>
       <use xlink:href="#m5e92dad079" x="257.901978" y="409.461656" style="fill: #8b94a8; stroke: #8b94a8; stroke-width: 0.8"/>
      </g>
     </g>
     <g id="text_43">
      <!-- 25 -->
      <g style="fill: #8b94a8" transform="translate(251.539478 424.059313) scale(0.1 -0.1)">
       <use xlink:href="#DejaVuSans-15"/>
       <use xlink:href="#DejaVuSans-18" transform="translate(63.625 0)"/>
      </g>
     </g>
    </g>
    <g id="xtick_24">
     <g id="line2d_42">
      <g>
       <use xlink:href="#m5e92dad079" x="296.172715" y="409.461656" style="fill: #8b94a8; stroke: #8b94a8; stroke-width: 0.8"/>
      </g>
     </g>
     <g id="text_44">
      <!-- 30 -->
      <g style="fill: #8b94a8" transform="translate(289.810215 424.059313) scale(0.1 -0.1)">
       <use xlink:href="#DejaVuSans-16"/>
       <use xlink:href="#DejaVuSans-13" transform="translate(63.625 0)"/>
      </g>
     </g>
    </g>
    <g id="xtick_25">
     <g id="line2d_43">
      <g>
       <use xlink:href="#m5e92dad079" x="334.443452" y="409.461656" style="fill: #8b94a8; stroke: #8b94a8; stroke-width: 0.8"/>
      </g>
     </g>
     <g id="text_45">
      <!-- 35 -->
      <g style="fill: #8b94a8" transform="translate(328.080952 424.059313) scale(0.1 -0.1)">
       <use xlink:href="#DejaVuSans-16"/>
       <use xlink:href="#DejaVuSans-18" transform="translate(63.625 0)"/>
      </g>
     </g>
    </g>
    <g id="xtick_26">
     <g id="line2d_44">
      <g>
       <use xlink:href="#m5e92dad079" x="372.714188" y="409.461656" style="fill: #8b94a8; stroke: #8b94a8; stroke-width: 0.8"/>
      </g>
     </g>
     <g id="text_46">
      <!-- 40 -->
      <g style="fill: #8b94a8" transform="translate(366.351688 424.059313) scale(0.1 -0.1)">
       <use xlink:href="#DejaVuSans-17"/>
       <use xlink:href="#DejaVuSans-13" transform="translate(63.625 0)"/>
      </g>
     </g>
    </g>
    <g id="text_47">
     <!-- seconds -->
     <g style="fill: #8b94a8" transform="translate(199.193742 438.060094) scale(0.1 -0.1)">
      <use xlink:href="#DejaVuSans-56"/>
      <use xlink:href="#DejaVuSans-48" transform="translate(52.09375 0)"/>
      <use xlink:href="#DejaVuSans-46" transform="translate(113.625 0)"/>
      <use xlink:href="#DejaVuSans-52" transform="translate(168.609375 0)"/>
      <use xlink:href="#DejaVuSans-51" transform="translate(229.796875 0)"/>
      <use xlink:href="#DejaVuSans-47" transform="translate(293.171875 0)"/>
      <use xlink:href="#DejaVuSans-56" transform="translate(356.65625 0)"/>
     </g>
    </g>
   </g>
   <g id="matplotlib.axis_6">
    <g id="ytick_15">
     <g id="line2d_45">
      <g>
       <use xlink:href="#m5176b7cbe1" x="51.24" y="409.461656" style="fill: #8b94a8; stroke: #8b94a8; stroke-width: 0.8"/>
      </g>
     </g>
     <g id="text_48">
      <!-- 0 -->
      <g style="fill: #8b94a8" transform="translate(37.8775 413.260484) scale(0.1 -0.1)">
       <use xlink:href="#DejaVuSans-13"/>
      </g>
     </g>
    </g>
    <g id="ytick_16">
     <g id="line2d_46">
      <g>
       <use xlink:href="#m5176b7cbe1" x="51.24" y="380.624546" style="fill: #8b94a8; stroke: #8b94a8; stroke-width: 0.8"/>
      </g>
     </g>
     <g id="text_49">
      <!-- 20 -->
      <g style="fill: #8b94a8" transform="translate(31.515 384.423374) scale(0.1 -0.1)">
       <use xlink:href="#DejaVuSans-15"/>
       <use xlink:href="#DejaVuSans-13" transform="translate(63.625 0)"/>
      </g>
     </g>
    </g>
    <g id="ytick_17">
     <g id="line2d_47">
      <g>
       <use xlink:href="#m5176b7cbe1" x="51.24" y="351.787436" style="fill: #8b94a8; stroke: #8b94a8; stroke-width: 0.8"/>
      </g>
     </g>
     <g id="text_50">
      <!-- 40 -->
      <g style="fill: #8b94a8" transform="translate(31.515 355.586264) scale(0.1 -0.1)">
       <use xlink:href="#DejaVuSans-17"/>
       <use xlink:href="#DejaVuSans-13" transform="translate(63.625 0)"/>
      </g>
     </g>
    </g>
    <g id="ytick_18">
     <g id="line2d_48">
      <g>
       <use xlink:href="#m5176b7cbe1" x="51.24" y="322.950326" style="fill: #8b94a8; stroke: #8b94a8; stroke-width: 0.8"/>
      </g>
     </g>
     <g id="text_51">
      <!-- 60 -->
      <g style="fill: #8b94a8" transform="translate(31.515 326.749154) scale(0.1 -0.1)">
       <use xlink:href="#DejaVuSans-19"/>
       <use xlink:href="#DejaVuSans-13" transform="translate(63.625 0)"/>
      </g>
     </g>
    </g>
    <g id="ytick_19">
     <g id="line2d_49">
      <g>
       <use xlink:href="#m5176b7cbe1" x="51.24" y="294.113216" style="fill: #8b94a8; stroke: #8b94a8; stroke-width: 0.8"/>
      </g>
     </g>
     <g id="text_52">
      <!-- 80 -->
      <g style="fill: #8b94a8" transform="translate(31.515 297.912044) scale(0.1 -0.1)">
       <defs>
        <path id="DejaVuSans-1b" d="M 2034 2216 
Q 1584 2216 1326 1975 
Q 1069 1734 1069 1313 
Q 1069 891 1326 650 
Q 1584 409 2034 409 
Q 2484 409 2743 651 
Q 3003 894 3003 1313 
Q 3003 1734 2745 1975 
Q 2488 2216 2034 2216 
z
M 1403 2484 
Q 997 2584 770 2862 
Q 544 3141 544 3541 
Q 544 4100 942 4425 
Q 1341 4750 2034 4750 
Q 2731 4750 3128 4425 
Q 3525 4100 3525 3541 
Q 3525 3141 3298 2862 
Q 3072 2584 2669 2484 
Q 3125 2378 3379 2068 
Q 3634 1759 3634 1313 
Q 3634 634 3220 271 
Q 2806 -91 2034 -91 
Q 1263 -91 848 271 
Q 434 634 434 1313 
Q 434 1759 690 2068 
Q 947 2378 1403 2484 
z
M 1172 3481 
Q 1172 3119 1398 2916 
Q 1625 2713 2034 2713 
Q 2441 2713 2670 2916 
Q 2900 3119 2900 3481 
Q 2900 3844 2670 4047 
Q 2441 4250 2034 4250 
Q 1625 4250 1398 4047 
Q 1172 3844 1172 3481 
z
" transform="scale(0.015625)"/>
       </defs>
       <use xlink:href="#DejaVuSans-1b"/>
       <use xlink:href="#DejaVuSans-13" transform="translate(63.625 0)"/>
      </g>
     </g>
    </g>
    <g id="ytick_20">
     <g id="line2d_50">
      <g>
       <use xlink:href="#m5176b7cbe1" x="51.24" y="265.276106" style="fill: #8b94a8; stroke: #8b94a8; stroke-width: 0.8"/>
      </g>
     </g>
     <g id="text_53">
      <!-- 100 -->
      <g style="fill: #8b94a8" transform="translate(25.1525 269.074934) scale(0.1 -0.1)">
       <use xlink:href="#DejaVuSans-14"/>
       <use xlink:href="#DejaVuSans-13" transform="translate(63.625 0)"/>
       <use xlink:href="#DejaVuSans-13" transform="translate(127.25 0)"/>
      </g>
     </g>
    </g>
    <g id="text_54">
     <!-- % -->
     <g style="fill: #8b94a8" transform="translate(18.750156 338.515023) rotate(-90) scale(0.1 -0.1)">
      <defs>
       <path id="DejaVuSans-8" d="M 4653 2053 
Q 4381 2053 4226 1822 
Q 4072 1591 4072 1178 
Q 4072 772 4226 539 
Q 4381 306 4653 306 
Q 4919 306 5073 539 
Q 5228 772 5228 1178 
Q 5228 1588 5073 1820 
Q 4919 2053 4653 2053 
z
M 4653 2450 
Q 5147 2450 5437 2106 
Q 5728 1763 5728 1178 
Q 5728 594 5436 251 
Q 5144 -91 4653 -91 
Q 4153 -91 3862 251 
Q 3572 594 3572 1178 
Q 3572 1766 3864 2108 
Q 4156 2450 4653 2450 
z
M 1428 4353 
Q 1159 4353 1004 4120 
Q 850 3888 850 3481 
Q 850 3069 1003 2837 
Q 1156 2606 1428 2606 
Q 1700 2606 1854 2837 
Q 2009 3069 2009 3481 
Q 2009 3884 1853 4118 
Q 1697 4353 1428 4353 
z
M 4250 4750 
L 4750 4750 
L 1831 -91 
L 1331 -91 
L 4250 4750 
z
M 1428 4750 
Q 1922 4750 2215 4408 
Q 2509 4066 2509 3481 
Q 2509 2891 2217 2550 
Q 1925 2209 1428 2209 
Q 931 2209 642 2551 
Q 353 2894 353 3481 
Q 353 4063 643 4406 
Q 934 4750 1428 4750 
z
" transform="scale(0.015625)"/>
      </defs>
      <use xlink:href="#DejaVuSans-8"/>
     </g>
    </g>
   </g>
   <g id="line2d_51">
    <path d="M 66.548295 408.019801 
L 70.375368 408.019801 
L 74.202442 409.461656 
L 78.029516 409.461656 
L 81.856589 409.461656 
L 85.683663 409.461656 
L 89.510737 409.461656 
L 93.33781 409.461656 
L 97.164884 409.461656 
L 100.991958 409.461656 
L 104.819031 409.461656 
L 108.646105 409.461656 
L 112.473179 386.391968 
L 116.300252 386.391968 
L 120.127326 409.461656 
L 123.9544 409.461656 
L 127.781473 409.461656 
L 131.608547 409.461656 
L 135.435621 409.461656 
L 139.262694 409.461656 
L 143.089768 409.461656 
L 146.916842 409.461656 
L 150.743915 409.461656 
L 154.570989 409.461656 
L 158.398063 409.461656 
L 162.225136 409.461656 
L 166.05221 383.508257 
L 169.879284 383.508257 
L 173.706357 409.461656 
L 177.533431 409.461656 
L 181.360505 409.461656 
L 185.187578 409.461656 
L 189.014652 386.391968 
L 192.841726 386.391968 
L 196.668799 409.461656 
L 200.495873 409.461656 
L 204.322947 397.926812 
L 208.150021 397.926812 
L 211.977094 409.461656 
L 215.804168 409.461656 
L 219.631242 409.461656 
L 223.458315 409.461656 
L 227.285389 406.577945 
L 231.112463 406.577945 
L 234.939536 409.461656 
L 238.76661 409.461656 
L 242.593684 386.391968 
L 246.420757 386.391968 
L 250.247831 409.461656 
L 254.074905 409.461656 
L 257.901978 405.13609 
L 261.729052 405.13609 
L 265.556126 346.020014 
L 269.383199 346.020014 
L 273.210273 337.368881 
L 277.037347 337.368881 
L 280.86442 348.903725 
L 284.691494 348.903725 
L 288.518568 374.857124 
L 292.345641 374.857124 
L 296.172715 363.32228 
L 299.999789 363.32228 
L 303.826862 409.461656 
L 307.653936 409.461656 
L 311.48101 347.461869 
L 315.308083 347.461869 
L 319.135157 337.368881 
L 322.962231 337.368881 
L 326.789304 335.927025 
L 330.616378 335.927025 
L 334.443452 348.903725 
L 338.270525 348.903725 
L 342.097599 334.48517 
L 345.924673 334.48517 
L 349.751746 341.694447 
L 353.57882 341.694447 
L 357.405894 338.810736 
L 361.232967 338.810736 
L 365.060041 325.834037 
L 368.887115 325.834037 
L 372.714188 409.461656 
" clip-path="url(#pf19bca21f8)" style="fill: none; stroke: #4ea8ff; stroke-width: 1.2; stroke-linecap: square"/>
   </g>
   <g id="patch_13">
    <path d="M 51.24 409.461656 
L 51.24 258.066828 
" style="fill: none; stroke: #2a3145; stroke-width: 0.8; stroke-linejoin: miter; stroke-linecap: square"/>
   </g>
   <g id="patch_14">
    <path d="M 388.022483 409.461656 
L 388.022483 258.066828 
" style="fill: none; stroke: #2a3145; stroke-width: 0.8; stroke-linejoin: miter; stroke-linecap: square"/>
   </g>
   <g id="patch_15">
    <path d="M 51.24 409.461656 
L 388.022483 409.461656 
" style="fill: none; stroke: #2a3145; stroke-width: 0.8; stroke-linejoin: miter; stroke-linecap: square"/>
   </g>
   <g id="patch_16">
    <path d="M 51.24 258.066828 
L 388.022483 258.066828 
" style="fill: none; stroke: #2a3145; stroke-width: 0.8; stroke-linejoin: miter; stroke-linecap: square"/>
   </g>
   <g id="text_55">
    <!-- fast int4: GPU utilization -->
    <g style="fill: #e7ecf5" transform="translate(158.981242 252.066828) scale(0.1 -0.1)">
     <defs>
      <path id="DejaVuSans-58" d="M 544 1381 
L 544 3500 
L 1119 3500 
L 1119 1403 
Q 1119 906 1312 657 
Q 1506 409 1894 409 
Q 2359 409 2629 706 
Q 2900 1003 2900 1516 
L 2900 3500 
L 3475 3500 
L 3475 0 
L 2900 0 
L 2900 538 
Q 2691 219 2414 64 
Q 2138 -91 1772 -91 
Q 1169 -91 856 284 
Q 544 659 544 1381 
z
M 1991 3584 
L 1991 3584 
z
" transform="scale(0.015625)"/>
      <path id="DejaVuSans-5d" d="M 353 3500 
L 3084 3500 
L 3084 2975 
L 922 459 
L 3084 459 
L 3084 0 
L 275 0 
L 275 525 
L 2438 3041 
L 353 3041 
L 353 3500 
z
" transform="scale(0.015625)"/>
     </defs>
     <use xlink:href="#DejaVuSans-49"/>
     <use xlink:href="#DejaVuSans-44" transform="translate(35.203125 0)"/>
     <use xlink:href="#DejaVuSans-56" transform="translate(96.484375 0)"/>
     <use xlink:href="#DejaVuSans-57" transform="translate(148.578125 0)"/>
     <use xlink:href="#DejaVuSans-3" transform="translate(187.78125 0)"/>
     <use xlink:href="#DejaVuSans-4c" transform="translate(219.5625 0)"/>
     <use xlink:href="#DejaVuSans-51" transform="translate(247.34375 0)"/>
     <use xlink:href="#DejaVuSans-57" transform="translate(310.71875 0)"/>
     <use xlink:href="#DejaVuSans-17" transform="translate(349.921875 0)"/>
     <use xlink:href="#DejaVuSans-1d" transform="translate(413.546875 0)"/>
     <use xlink:href="#DejaVuSans-3" transform="translate(447.234375 0)"/>
     <use xlink:href="#DejaVuSans-2a" transform="translate(479.015625 0)"/>
     <use xlink:href="#DejaVuSans-33" transform="translate(556.5 0)"/>
     <use xlink:href="#DejaVuSans-38" transform="translate(616.796875 0)"/>
     <use xlink:href="#DejaVuSans-3" transform="translate(689.984375 0)"/>
     <use xlink:href="#DejaVuSans-58" transform="translate(721.765625 0)"/>
     <use xlink:href="#DejaVuSans-57" transform="translate(785.140625 0)"/>
     <use xlink:href="#DejaVuSans-4c" transform="translate(824.34375 0)"/>
     <use xlink:href="#DejaVuSans-4f" transform="translate(852.125 0)"/>
     <use xlink:href="#DejaVuSans-4c" transform="translate(879.90625 0)"/>
     <use xlink:href="#DejaVuSans-5d" transform="translate(907.6875 0)"/>
     <use xlink:href="#DejaVuSans-44" transform="translate(960.171875 0)"/>
     <use xlink:href="#DejaVuSans-57" transform="translate(1021.453125 0)"/>
     <use xlink:href="#DejaVuSans-4c" transform="translate(1060.65625 0)"/>
     <use xlink:href="#DejaVuSans-52" transform="translate(1088.4375 0)"/>
     <use xlink:href="#DejaVuSans-51" transform="translate(1149.625 0)"/>
    </g>
   </g>
  </g>
  <g id="axes_4">
   <g id="patch_17">
    <path d="M 439.262483 409.461656 
L 776.044966 409.461656 
L 776.044966 258.066828 
L 439.262483 258.066828 
z
" style="fill: #0c0e14"/>
   </g>
   <g id="matplotlib.axis_7">
    <g id="xtick_27">
     <g id="line2d_52">
      <g>
       <use xlink:href="#m5e92dad079" x="454.570778" y="409.461656" style="fill: #8b94a8; stroke: #8b94a8; stroke-width: 0.8"/>
      </g>
     </g>
     <g id="text_56">
      <!-- 0 -->
      <g style="fill: #8b94a8" transform="translate(451.389528 424.059313) scale(0.1 -0.1)">
       <use xlink:href="#DejaVuSans-13"/>
      </g>
     </g>
    </g>
    <g id="xtick_28">
     <g id="line2d_53">
      <g>
       <use xlink:href="#m5e92dad079" x="500.26718" y="409.461656" style="fill: #8b94a8; stroke: #8b94a8; stroke-width: 0.8"/>
      </g>
     </g>
     <g id="text_57">
      <!-- 10 -->
      <g style="fill: #8b94a8" transform="translate(493.90468 424.059313) scale(0.1 -0.1)">
       <use xlink:href="#DejaVuSans-14"/>
       <use xlink:href="#DejaVuSans-13" transform="translate(63.625 0)"/>
      </g>
     </g>
    </g>
    <g id="xtick_29">
     <g id="line2d_54">
      <g>
       <use xlink:href="#m5e92dad079" x="545.963582" y="409.461656" style="fill: #8b94a8; stroke: #8b94a8; stroke-width: 0.8"/>
      </g>
     </g>
     <g id="text_58">
      <!-- 20 -->
      <g style="fill: #8b94a8" transform="translate(539.601082 424.059313) scale(0.1 -0.1)">
       <use xlink:href="#DejaVuSans-15"/>
       <use xlink:href="#DejaVuSans-13" transform="translate(63.625 0)"/>
      </g>
     </g>
    </g>
    <g id="xtick_30">
     <g id="line2d_55">
      <g>
       <use xlink:href="#m5e92dad079" x="591.659984" y="409.461656" style="fill: #8b94a8; stroke: #8b94a8; stroke-width: 0.8"/>
      </g>
     </g>
     <g id="text_59">
      <!-- 30 -->
      <g style="fill: #8b94a8" transform="translate(585.297484 424.059313) scale(0.1 -0.1)">
       <use xlink:href="#DejaVuSans-16"/>
       <use xlink:href="#DejaVuSans-13" transform="translate(63.625 0)"/>
      </g>
     </g>
    </g>
    <g id="xtick_31">
     <g id="line2d_56">
      <g>
       <use xlink:href="#m5e92dad079" x="637.356386" y="409.461656" style="fill: #8b94a8; stroke: #8b94a8; stroke-width: 0.8"/>
      </g>
     </g>
     <g id="text_60">
      <!-- 40 -->
      <g style="fill: #8b94a8" transform="translate(630.993886 424.059313) scale(0.1 -0.1)">
       <use xlink:href="#DejaVuSans-17"/>
       <use xlink:href="#DejaVuSans-13" transform="translate(63.625 0)"/>
      </g>
     </g>
    </g>
    <g id="xtick_32">
     <g id="line2d_57">
      <g>
       <use xlink:href="#m5e92dad079" x="683.052788" y="409.461656" style="fill: #8b94a8; stroke: #8b94a8; stroke-width: 0.8"/>
      </g>
     </g>
     <g id="text_61">
      <!-- 50 -->
      <g style="fill: #8b94a8" transform="translate(676.690288 424.059313) scale(0.1 -0.1)">
       <use xlink:href="#DejaVuSans-18"/>
       <use xlink:href="#DejaVuSans-13" transform="translate(63.625 0)"/>
      </g>
     </g>
    </g>
    <g id="xtick_33">
     <g id="line2d_58">
      <g>
       <use xlink:href="#m5e92dad079" x="728.74919" y="409.461656" style="fill: #8b94a8; stroke: #8b94a8; stroke-width: 0.8"/>
      </g>
     </g>
     <g id="text_62">
      <!-- 60 -->
      <g style="fill: #8b94a8" transform="translate(722.38669 424.059313) scale(0.1 -0.1)">
       <use xlink:href="#DejaVuSans-19"/>
       <use xlink:href="#DejaVuSans-13" transform="translate(63.625 0)"/>
      </g>
     </g>
    </g>
    <g id="xtick_34">
     <g id="line2d_59">
      <g>
       <use xlink:href="#m5e92dad079" x="774.445592" y="409.461656" style="fill: #8b94a8; stroke: #8b94a8; stroke-width: 0.8"/>
      </g>
     </g>
     <g id="text_63">
      <!-- 70 -->
      <g style="fill: #8b94a8" transform="translate(768.083092 424.059313) scale(0.1 -0.1)">
       <use xlink:href="#DejaVuSans-1a"/>
       <use xlink:href="#DejaVuSans-13" transform="translate(63.625 0)"/>
      </g>
     </g>
    </g>
    <g id="text_64">
     <!-- seconds -->
     <g style="fill: #8b94a8" transform="translate(587.216225 438.060094) scale(0.1 -0.1)">
      <use xlink:href="#DejaVuSans-56"/>
      <use xlink:href="#DejaVuSans-48" transform="translate(52.09375 0)"/>
      <use xlink:href="#DejaVuSans-46" transform="translate(113.625 0)"/>
      <use xlink:href="#DejaVuSans-52" transform="translate(168.609375 0)"/>
      <use xlink:href="#DejaVuSans-51" transform="translate(229.796875 0)"/>
      <use xlink:href="#DejaVuSans-47" transform="translate(293.171875 0)"/>
      <use xlink:href="#DejaVuSans-56" transform="translate(356.65625 0)"/>
     </g>
    </g>
   </g>
   <g id="matplotlib.axis_8">
    <g id="ytick_21">
     <g id="line2d_60">
      <g>
       <use xlink:href="#m5176b7cbe1" x="439.262483" y="409.461656" style="fill: #8b94a8; stroke: #8b94a8; stroke-width: 0.8"/>
      </g>
     </g>
     <g id="text_65">
      <!-- 0 -->
      <g style="fill: #8b94a8" transform="translate(425.899983 413.260484) scale(0.1 -0.1)">
       <use xlink:href="#DejaVuSans-13"/>
      </g>
     </g>
    </g>
    <g id="ytick_22">
     <g id="line2d_61">
      <g>
       <use xlink:href="#m5176b7cbe1" x="439.262483" y="380.624546" style="fill: #8b94a8; stroke: #8b94a8; stroke-width: 0.8"/>
      </g>
     </g>
     <g id="text_66">
      <!-- 20 -->
      <g style="fill: #8b94a8" transform="translate(419.537483 384.423374) scale(0.1 -0.1)">
       <use xlink:href="#DejaVuSans-15"/>
       <use xlink:href="#DejaVuSans-13" transform="translate(63.625 0)"/>
      </g>
     </g>
    </g>
    <g id="ytick_23">
     <g id="line2d_62">
      <g>
       <use xlink:href="#m5176b7cbe1" x="439.262483" y="351.787436" style="fill: #8b94a8; stroke: #8b94a8; stroke-width: 0.8"/>
      </g>
     </g>
     <g id="text_67">
      <!-- 40 -->
      <g style="fill: #8b94a8" transform="translate(419.537483 355.586264) scale(0.1 -0.1)">
       <use xlink:href="#DejaVuSans-17"/>
       <use xlink:href="#DejaVuSans-13" transform="translate(63.625 0)"/>
      </g>
     </g>
    </g>
    <g id="ytick_24">
     <g id="line2d_63">
      <g>
       <use xlink:href="#m5176b7cbe1" x="439.262483" y="322.950326" style="fill: #8b94a8; stroke: #8b94a8; stroke-width: 0.8"/>
      </g>
     </g>
     <g id="text_68">
      <!-- 60 -->
      <g style="fill: #8b94a8" transform="translate(419.537483 326.749154) scale(0.1 -0.1)">
       <use xlink:href="#DejaVuSans-19"/>
       <use xlink:href="#DejaVuSans-13" transform="translate(63.625 0)"/>
      </g>
     </g>
    </g>
    <g id="ytick_25">
     <g id="line2d_64">
      <g>
       <use xlink:href="#m5176b7cbe1" x="439.262483" y="294.113216" style="fill: #8b94a8; stroke: #8b94a8; stroke-width: 0.8"/>
      </g>
     </g>
     <g id="text_69">
      <!-- 80 -->
      <g style="fill: #8b94a8" transform="translate(419.537483 297.912044) scale(0.1 -0.1)">
       <use xlink:href="#DejaVuSans-1b"/>
       <use xlink:href="#DejaVuSans-13" transform="translate(63.625 0)"/>
      </g>
     </g>
    </g>
    <g id="ytick_26">
     <g id="line2d_65">
      <g>
       <use xlink:href="#m5176b7cbe1" x="439.262483" y="265.276106" style="fill: #8b94a8; stroke: #8b94a8; stroke-width: 0.8"/>
      </g>
     </g>
     <g id="text_70">
      <!-- 100 -->
      <g style="fill: #8b94a8" transform="translate(413.174983 269.074934) scale(0.1 -0.1)">
       <use xlink:href="#DejaVuSans-14"/>
       <use xlink:href="#DejaVuSans-13" transform="translate(63.625 0)"/>
       <use xlink:href="#DejaVuSans-13" transform="translate(127.25 0)"/>
      </g>
     </g>
    </g>
    <g id="text_71">
     <!-- % -->
     <g style="fill: #8b94a8" transform="translate(406.772639 338.515023) rotate(-90) scale(0.1 -0.1)">
      <use xlink:href="#DejaVuSans-8"/>
     </g>
    </g>
   </g>
   <g id="line2d_66">
    <path d="M 454.570778 409.461656 
L 481.988619 409.461656 
L 484.273439 406.577945 
L 486.558259 406.577945 
L 488.843079 383.508257 
L 491.127899 383.508257 
L 493.412719 409.461656 
L 513.9761 409.461656 
L 516.26092 386.391968 
L 518.545741 386.391968 
L 520.830561 383.508257 
L 523.115381 383.508257 
L 525.400201 409.461656 
L 550.533222 409.461656 
L 552.818042 393.601246 
L 555.102862 393.601246 
L 557.387682 383.508257 
L 559.672502 383.508257 
L 561.957323 409.461656 
L 582.520703 409.461656 
L 584.805524 408.019801 
L 587.090344 408.019801 
L 589.375164 366.205991 
L 591.659984 366.205991 
L 593.944804 364.764136 
L 596.229624 364.764136 
L 598.514444 396.484957 
L 600.799264 396.484957 
L 603.084084 366.205991 
L 605.368904 366.205991 
L 607.653725 364.764136 
L 619.077825 364.764136 
L 621.362645 367.647847 
L 623.647465 367.647847 
L 625.932285 366.205991 
L 628.217105 366.205991 
L 630.501926 380.624546 
L 632.786746 380.624546 
L 635.071566 358.996714 
L 637.356386 358.996714 
L 639.641206 364.764136 
L 646.495666 364.764136 
L 648.780486 356.113003 
L 651.065306 356.113003 
L 653.350127 367.647847 
L 655.634947 367.647847 
L 657.919767 363.32228 
L 660.204587 363.32228 
L 662.489407 366.205991 
L 664.774227 366.205991 
L 667.059047 377.740835 
L 669.343867 377.740835 
L 671.628687 386.391968 
L 673.913508 386.391968 
L 676.198328 376.29898 
L 678.483148 376.29898 
L 680.767968 366.205991 
L 683.052788 366.205991 
L 685.337608 363.32228 
L 692.192068 363.32228 
L 694.476888 380.624546 
L 701.331349 380.624546 
L 703.616169 363.32228 
L 710.470629 363.32228 
L 712.755449 367.647847 
L 715.040269 367.647847 
L 717.325089 386.391968 
L 719.60991 386.391968 
L 721.89473 370.531558 
L 724.17955 370.531558 
L 726.46437 363.32228 
L 733.31883 363.32228 
L 735.60365 371.973413 
L 737.88847 371.973413 
L 740.17329 386.391968 
L 742.458111 386.391968 
L 744.742931 383.508257 
L 747.027751 383.508257 
L 749.312571 363.32228 
L 756.167031 363.32228 
L 758.451851 366.205991 
L 760.736671 366.205991 
L 760.736671 366.205991 
" clip-path="url(#pc1c746f154)" style="fill: none; stroke: #3ad29f; stroke-width: 1.2; stroke-linecap: square"/>
   </g>
   <g id="patch_18">
    <path d="M 439.262483 409.461656 
L 439.262483 258.066828 
" style="fill: none; stroke: #2a3145; stroke-width: 0.8; stroke-linejoin: miter; stroke-linecap: square"/>
   </g>
   <g id="patch_19">
    <path d="M 776.044966 409.461656 
L 776.044966 258.066828 
" style="fill: none; stroke: #2a3145; stroke-width: 0.8; stroke-linejoin: miter; stroke-linecap: square"/>
   </g>
   <g id="patch_20">
    <path d="M 439.262483 409.461656 
L 776.044966 409.461656 
" style="fill: none; stroke: #2a3145; stroke-width: 0.8; stroke-linejoin: miter; stroke-linecap: square"/>
   </g>
   <g id="patch_21">
    <path d="M 439.262483 258.066828 
L 776.044966 258.066828 
" style="fill: none; stroke: #2a3145; stroke-width: 0.8; stroke-linejoin: miter; stroke-linecap: square"/>
   </g>
   <g id="text_72">
    <!-- exact BF16: GPU utilization -->
    <g style="fill: #e7ecf5" transform="translate(539.701381 252.066828) scale(0.1 -0.1)">
     <use xlink:href="#DejaVuSans-48"/>
     <use xlink:href="#DejaVuSans-5b" transform="translate(59.78125 0)"/>
     <use xlink:href="#DejaVuSans-44" transform="translate(118.96875 0)"/>
     <use xlink:href="#DejaVuSans-46" transform="translate(180.25 0)"/>
     <use xlink:href="#DejaVuSans-57" transform="translate(235.234375 0)"/>
     <use xlink:href="#DejaVuSans-3" transform="translate(274.4375 0)"/>
     <use xlink:href="#DejaVuSans-25" transform="translate(306.21875 0)"/>
     <use xlink:href="#DejaVuSans-29" transform="translate(374.828125 0)"/>
     <use xlink:href="#DejaVuSans-14" transform="translate(432.34375 0)"/>
     <use xlink:href="#DejaVuSans-19" transform="translate(495.96875 0)"/>
     <use xlink:href="#DejaVuSans-1d" transform="translate(559.59375 0)"/>
     <use xlink:href="#DejaVuSans-3" transform="translate(593.28125 0)"/>
     <use xlink:href="#DejaVuSans-2a" transform="translate(625.0625 0)"/>
     <use xlink:href="#DejaVuSans-33" transform="translate(702.546875 0)"/>
     <use xlink:href="#DejaVuSans-38" transform="translate(762.84375 0)"/>
     <use xlink:href="#DejaVuSans-3" transform="translate(836.03125 0)"/>
     <use xlink:href="#DejaVuSans-58" transform="translate(867.8125 0)"/>
     <use xlink:href="#DejaVuSans-57" transform="translate(931.1875 0)"/>
     <use xlink:href="#DejaVuSans-4c" transform="translate(970.390625 0)"/>
     <use xlink:href="#DejaVuSans-4f" transform="translate(998.171875 0)"/>
     <use xlink:href="#DejaVuSans-4c" transform="translate(1025.953125 0)"/>
     <use xlink:href="#DejaVuSans-5d" transform="translate(1053.734375 0)"/>
     <use xlink:href="#DejaVuSans-44" transform="translate(1106.21875 0)"/>
     <use xlink:href="#DejaVuSans-57" transform="translate(1167.5 0)"/>
     <use xlink:href="#DejaVuSans-4c" transform="translate(1206.703125 0)"/>
     <use xlink:href="#DejaVuSans-52" transform="translate(1234.484375 0)"/>
     <use xlink:href="#DejaVuSans-51" transform="translate(1295.671875 0)"/>
    </g>
   </g>
  </g>
  <g id="text_73">
   <!-- Where the time goes: load → prefill → decode  (RTX 4060 Ti, 500 ms samples) -->
   <g style="fill: #e7ecf5" transform="translate(182.001875 17.574281) scale(0.11 -0.11)">
    <defs>
     <path id="DejaVuSans-4b" d="M 3513 2113 
L 3513 0 
L 2938 0 
L 2938 2094 
Q 2938 2591 2744 2837 
Q 2550 3084 2163 3084 
Q 1697 3084 1428 2787 
Q 1159 2491 1159 1978 
L 1159 0 
L 581 0 
L 581 4863 
L 1159 4863 
L 1159 2956 
Q 1366 3272 1645 3428 
Q 1925 3584 2291 3584 
Q 2894 3584 3203 3211 
Q 3513 2838 3513 2113 
z
" transform="scale(0.015625)"/>
     <path id="DejaVuSans-4a" d="M 2906 1791 
Q 2906 2416 2648 2759 
Q 2391 3103 1925 3103 
Q 1463 3103 1205 2759 
Q 947 2416 947 1791 
Q 947 1169 1205 825 
Q 1463 481 1925 481 
Q 2391 481 2648 825 
Q 2906 1169 2906 1791 
z
M 3481 434 
Q 3481 -459 3084 -895 
Q 2688 -1331 1869 -1331 
Q 1566 -1331 1297 -1286 
Q 1028 -1241 775 -1147 
L 775 -588 
Q 1028 -725 1275 -790 
Q 1522 -856 1778 -856 
Q 2344 -856 2625 -561 
Q 2906 -266 2906 331 
L 2906 616 
Q 2728 306 2450 153 
Q 2172 0 1784 0 
Q 1141 0 747 490 
Q 353 981 353 1791 
Q 353 2603 747 3093 
Q 1141 3584 1784 3584 
Q 2172 3584 2450 3431 
Q 2728 3278 2906 2969 
L 2906 3500 
L 3481 3500 
L 3481 434 
z
" transform="scale(0.015625)"/>
     <path id="DejaVuSans-c1c" d="M 5050 2147 
L 5050 1866 
L 3822 638 
L 3447 1013 
L 4175 1741 
L 366 1741 
L 366 2272 
L 4175 2272 
L 3447 3000 
L 3822 3375 
L 5050 2147 
z
" transform="scale(0.015625)"/>
     <path id="DejaVuSans-13af" d="M 3431 3500 
L 3431 0 
L 2853 0 
L 2853 3053 
L 1275 3053 
L 1275 0 
L 697 0 
L 697 3053 
L 147 3053 
L 147 3500 
L 697 3500 
L 697 3744 
Q 697 4316 967 4589 
Q 1238 4863 1797 4863 
L 2375 4863 
L 2375 4384 
L 1825 4384 
Q 1516 4384 1395 4259 
Q 1275 4134 1275 3809 
L 1275 3500 
L 3431 3500 
z
M 2853 4856 
L 3431 4856 
L 3431 4128 
L 2853 4128 
L 2853 4856 
z
" transform="scale(0.015625)"/>
     <path id="DejaVuSans-b" d="M 1984 4856 
Q 1566 4138 1362 3434 
Q 1159 2731 1159 2009 
Q 1159 1288 1364 580 
Q 1569 -128 1984 -844 
L 1484 -844 
Q 1016 -109 783 600 
Q 550 1309 550 2009 
Q 550 2706 781 3412 
Q 1013 4119 1484 4856 
L 1984 4856 
z
" transform="scale(0.015625)"/>
     <path id="DejaVuSans-35" d="M 2841 2188 
Q 3044 2119 3236 1894 
Q 3428 1669 3622 1275 
L 4263 0 
L 3584 0 
L 2988 1197 
Q 2756 1666 2539 1819 
Q 2322 1972 1947 1972 
L 1259 1972 
L 1259 0 
L 628 0 
L 628 4666 
L 2053 4666 
Q 2853 4666 3247 4331 
Q 3641 3997 3641 3322 
Q 3641 2881 3436 2590 
Q 3231 2300 2841 2188 
z
M 1259 4147 
L 1259 2491 
L 2053 2491 
Q 2509 2491 2742 2702 
Q 2975 2913 2975 3322 
Q 2975 3731 2742 3939 
Q 2509 4147 2053 4147 
L 1259 4147 
z
" transform="scale(0.015625)"/>
     <path id="DejaVuSans-37" d="M -19 4666 
L 3928 4666 
L 3928 4134 
L 2272 4134 
L 2272 0 
L 1638 0 
L 1638 4134 
L -19 4134 
L -19 4666 
z
" transform="scale(0.015625)"/>
     <path id="DejaVuSans-3b" d="M 403 4666 
L 1081 4666 
L 2241 2931 
L 3406 4666 
L 4084 4666 
L 2584 2425 
L 4184 0 
L 3506 0 
L 2194 1984 
L 872 0 
L 191 0 
L 1856 2491 
L 403 4666 
z
" transform="scale(0.015625)"/>
     <path id="DejaVuSans-f" d="M 750 794 
L 1409 794 
L 1409 256 
L 897 -744 
L 494 -744 
L 750 256 
L 750 794 
z
" transform="scale(0.015625)"/>
     <path id="DejaVuSans-c" d="M 513 4856 
L 1013 4856 
Q 1481 4119 1714 3412 
Q 1947 2706 1947 2009 
Q 1947 1309 1714 600 
Q 1481 -109 1013 -844 
L 513 -844 
Q 928 -128 1133 580 
Q 1338 1288 1338 2009 
Q 1338 2731 1133 3434 
Q 928 4138 513 4856 
z
" transform="scale(0.015625)"/>
    </defs>
    <use xlink:href="#DejaVuSans-3a"/>
    <use xlink:href="#DejaVuSans-4b" transform="translate(98.875 0)"/>
    <use xlink:href="#DejaVuSans-48" transform="translate(162.25 0)"/>
    <use xlink:href="#DejaVuSans-55" transform="translate(223.78125 0)"/>
    <use xlink:href="#DejaVuSans-48" transform="translate(262.6875 0)"/>
    <use xlink:href="#DejaVuSans-3" transform="translate(324.21875 0)"/>
    <use xlink:href="#DejaVuSans-57" transform="translate(356 0)"/>
    <use xlink:href="#DejaVuSans-4b" transform="translate(395.203125 0)"/>
    <use xlink:href="#DejaVuSans-48" transform="translate(458.578125 0)"/>
    <use xlink:href="#DejaVuSans-3" transform="translate(520.109375 0)"/>
    <use xlink:href="#DejaVuSans-57" transform="translate(551.890625 0)"/>
    <use xlink:href="#DejaVuSans-4c" transform="translate(591.09375 0)"/>
    <use xlink:href="#DejaVuSans-50" transform="translate(618.875 0)"/>
    <use xlink:href="#DejaVuSans-48" transform="translate(716.28125 0)"/>
    <use xlink:href="#DejaVuSans-3" transform="translate(777.8125 0)"/>
    <use xlink:href="#DejaVuSans-4a" transform="translate(809.59375 0)"/>
    <use xlink:href="#DejaVuSans-52" transform="translate(873.078125 0)"/>
    <use xlink:href="#DejaVuSans-48" transform="translate(934.265625 0)"/>
    <use xlink:href="#DejaVuSans-56" transform="translate(995.796875 0)"/>
    <use xlink:href="#DejaVuSans-1d" transform="translate(1047.890625 0)"/>
    <use xlink:href="#DejaVuSans-3" transform="translate(1081.578125 0)"/>
    <use xlink:href="#DejaVuSans-4f" transform="translate(1113.359375 0)"/>
    <use xlink:href="#DejaVuSans-52" transform="translate(1141.140625 0)"/>
    <use xlink:href="#DejaVuSans-44" transform="translate(1202.328125 0)"/>
    <use xlink:href="#DejaVuSans-47" transform="translate(1263.609375 0)"/>
    <use xlink:href="#DejaVuSans-3" transform="translate(1327.09375 0)"/>
    <use xlink:href="#DejaVuSans-c1c" transform="translate(1358.875 0)"/>
    <use xlink:href="#DejaVuSans-3" transform="translate(1442.671875 0)"/>
    <use xlink:href="#DejaVuSans-53" transform="translate(1474.453125 0)"/>
    <use xlink:href="#DejaVuSans-55" transform="translate(1537.9375 0)"/>
    <use xlink:href="#DejaVuSans-48" transform="translate(1576.84375 0)"/>
    <use xlink:href="#DejaVuSans-13af" transform="translate(1638.375 0)"/>
    <use xlink:href="#DejaVuSans-4f" transform="translate(1701.359375 0)"/>
    <use xlink:href="#DejaVuSans-4f" transform="translate(1729.140625 0)"/>
    <use xlink:href="#DejaVuSans-3" transform="translate(1756.921875 0)"/>
    <use xlink:href="#DejaVuSans-c1c" transform="translate(1788.703125 0)"/>
    <use xlink:href="#DejaVuSans-3" transform="translate(1872.5 0)"/>
    <use xlink:href="#DejaVuSans-47" transform="translate(1904.28125 0)"/>
    <use xlink:href="#DejaVuSans-48" transform="translate(1967.765625 0)"/>
    <use xlink:href="#DejaVuSans-46" transform="translate(2029.296875 0)"/>
    <use xlink:href="#DejaVuSans-52" transform="translate(2084.28125 0)"/>
    <use xlink:href="#DejaVuSans-47" transform="translate(2145.46875 0)"/>
    <use xlink:href="#DejaVuSans-48" transform="translate(2208.953125 0)"/>
    <use xlink:href="#DejaVuSans-3" transform="translate(2270.484375 0)"/>
    <use xlink:href="#DejaVuSans-3" transform="translate(2302.265625 0)"/>
    <use xlink:href="#DejaVuSans-b" transform="translate(2334.046875 0)"/>
    <use xlink:href="#DejaVuSans-35" transform="translate(2373.0625 0)"/>
    <use xlink:href="#DejaVuSans-37" transform="translate(2435.265625 0)"/>
    <use xlink:href="#DejaVuSans-3b" transform="translate(2496.34375 0)"/>
    <use xlink:href="#DejaVuSans-3" transform="translate(2564.84375 0)"/>
    <use xlink:href="#DejaVuSans-17" transform="translate(2596.625 0)"/>
    <use xlink:href="#DejaVuSans-13" transform="translate(2660.25 0)"/>
    <use xlink:href="#DejaVuSans-19" transform="translate(2723.875 0)"/>
    <use xlink:href="#DejaVuSans-13" transform="translate(2787.5 0)"/>
    <use xlink:href="#DejaVuSans-3" transform="translate(2851.125 0)"/>
    <use xlink:href="#DejaVuSans-37" transform="translate(2882.90625 0)"/>
    <use xlink:href="#DejaVuSans-4c" transform="translate(2940.90625 0)"/>
    <use xlink:href="#DejaVuSans-f" transform="translate(2968.6875 0)"/>
    <use xlink:href="#DejaVuSans-3" transform="translate(3000.46875 0)"/>
    <use xlink:href="#DejaVuSans-18" transform="translate(3032.25 0)"/>
    <use xlink:href="#DejaVuSans-13" transform="translate(3095.875 0)"/>
    <use xlink:href="#DejaVuSans-13" transform="translate(3159.5 0)"/>
    <use xlink:href="#DejaVuSans-3" transform="translate(3223.125 0)"/>
    <use xlink:href="#DejaVuSans-50" transform="translate(3254.90625 0)"/>
    <use xlink:href="#DejaVuSans-56" transform="translate(3352.3125 0)"/>
    <use xlink:href="#DejaVuSans-3" transform="translate(3404.40625 0)"/>
    <use xlink:href="#DejaVuSans-56" transform="translate(3436.1875 0)"/>
    <use xlink:href="#DejaVuSans-44" transform="translate(3488.28125 0)"/>
    <use xlink:href="#DejaVuSans-50" transform="translate(3549.5625 0)"/>
    <use xlink:href="#DejaVuSans-53" transform="translate(3646.96875 0)"/>
    <use xlink:href="#DejaVuSans-4f" transform="translate(3710.453125 0)"/>
    <use xlink:href="#DejaVuSans-48" transform="translate(3738.234375 0)"/>
    <use xlink:href="#DejaVuSans-56" transform="translate(3799.765625 0)"/>
    <use xlink:href="#DejaVuSans-c" transform="translate(3851.859375 0)"/>
   </g>
  </g>
  <g id="text_74">
   <!-- exact BF16 decode is NVMe-bound: the GPU waits for verified reads (low duty cycle by design) -->
   <g style="fill: #8b94a8" transform="translate(206.285625 458.496) scale(0.08 -0.08)">
    <defs>
     <path id="DejaVuSans-31" d="M 628 4666 
L 1478 4666 
L 3547 763 
L 3547 4666 
L 4159 4666 
L 4159 0 
L 3309 0 
L 1241 3903 
L 1241 0 
L 628 0 
L 628 4666 
z
" transform="scale(0.015625)"/>
     <path id="DejaVuSans-39" d="M 1831 0 
L 50 4666 
L 709 4666 
L 2188 738 
L 3669 4666 
L 4325 4666 
L 2547 0 
L 1831 0 
z
" transform="scale(0.015625)"/>
     <path id="DejaVuSans-30" d="M 628 4666 
L 1569 4666 
L 2759 1491 
L 3956 4666 
L 4897 4666 
L 4897 0 
L 4281 0 
L 4281 4097 
L 3078 897 
L 2444 897 
L 1241 4097 
L 1241 0 
L 628 0 
L 628 4666 
z
" transform="scale(0.015625)"/>
     <path id="DejaVuSans-10" d="M 313 2009 
L 1997 2009 
L 1997 1497 
L 313 1497 
L 313 2009 
z
" transform="scale(0.015625)"/>
     <path id="DejaVuSans-59" d="M 191 3500 
L 800 3500 
L 1894 563 
L 2988 3500 
L 3597 3500 
L 2284 0 
L 1503 0 
L 191 3500 
z
" transform="scale(0.015625)"/>
     <path id="DejaVuSans-5c" d="M 2059 -325 
Q 1816 -950 1584 -1140 
Q 1353 -1331 966 -1331 
L 506 -1331 
L 506 -850 
L 844 -850 
Q 1081 -850 1212 -737 
Q 1344 -625 1503 -206 
L 1606 56 
L 191 3500 
L 800 3500 
L 1894 763 
L 2988 3500 
L 3597 3500 
L 2059 -325 
z
" transform="scale(0.015625)"/>
    </defs>
    <use xlink:href="#DejaVuSans-48"/>
    <use xlink:href="#DejaVuSans-5b" transform="translate(59.78125 0)"/>
    <use xlink:href="#DejaVuSans-44" transform="translate(118.96875 0)"/>
    <use xlink:href="#DejaVuSans-46" transform="translate(180.25 0)"/>
    <use xlink:href="#DejaVuSans-57" transform="translate(235.234375 0)"/>
    <use xlink:href="#DejaVuSans-3" transform="translate(274.4375 0)"/>
    <use xlink:href="#DejaVuSans-25" transform="translate(306.21875 0)"/>
    <use xlink:href="#DejaVuSans-29" transform="translate(374.828125 0)"/>
    <use xlink:href="#DejaVuSans-14" transform="translate(432.34375 0)"/>
    <use xlink:href="#DejaVuSans-19" transform="translate(495.96875 0)"/>
    <use xlink:href="#DejaVuSans-3" transform="translate(559.59375 0)"/>
    <use xlink:href="#DejaVuSans-47" transform="translate(591.375 0)"/>
    <use xlink:href="#DejaVuSans-48" transform="translate(654.859375 0)"/>
    <use xlink:href="#DejaVuSans-46" transform="translate(716.390625 0)"/>
    <use xlink:href="#DejaVuSans-52" transform="translate(771.375 0)"/>
    <use xlink:href="#DejaVuSans-47" transform="translate(832.5625 0)"/>
    <use xlink:href="#DejaVuSans-48" transform="translate(896.046875 0)"/>
    <use xlink:href="#DejaVuSans-3" transform="translate(957.578125 0)"/>
    <use xlink:href="#DejaVuSans-4c" transform="translate(989.359375 0)"/>
    <use xlink:href="#DejaVuSans-56" transform="translate(1017.140625 0)"/>
    <use xlink:href="#DejaVuSans-3" transform="translate(1069.234375 0)"/>
    <use xlink:href="#DejaVuSans-31" transform="translate(1101.015625 0)"/>
    <use xlink:href="#DejaVuSans-39" transform="translate(1175.828125 0)"/>
    <use xlink:href="#DejaVuSans-30" transform="translate(1244.234375 0)"/>
    <use xlink:href="#DejaVuSans-48" transform="translate(1330.515625 0)"/>
    <use xlink:href="#DejaVuSans-10" transform="translate(1392.046875 0)"/>
    <use xlink:href="#DejaVuSans-45" transform="translate(1428.125 0)"/>
    <use xlink:href="#DejaVuSans-52" transform="translate(1491.609375 0)"/>
    <use xlink:href="#DejaVuSans-58" transform="translate(1552.796875 0)"/>
    <use xlink:href="#DejaVuSans-51" transform="translate(1616.171875 0)"/>
    <use xlink:href="#DejaVuSans-47" transform="translate(1679.546875 0)"/>
    <use xlink:href="#DejaVuSans-1d" transform="translate(1743.03125 0)"/>
    <use xlink:href="#DejaVuSans-3" transform="translate(1776.71875 0)"/>
    <use xlink:href="#DejaVuSans-57" transform="translate(1808.5 0)"/>
    <use xlink:href="#DejaVuSans-4b" transform="translate(1847.703125 0)"/>
    <use xlink:href="#DejaVuSans-48" transform="translate(1911.078125 0)"/>
    <use xlink:href="#DejaVuSans-3" transform="translate(1972.609375 0)"/>
    <use xlink:href="#DejaVuSans-2a" transform="translate(2004.390625 0)"/>
    <use xlink:href="#DejaVuSans-33" transform="translate(2081.875 0)"/>
    <use xlink:href="#DejaVuSans-38" transform="translate(2142.171875 0)"/>
    <use xlink:href="#DejaVuSans-3" transform="translate(2215.359375 0)"/>
    <use xlink:href="#DejaVuSans-5a" transform="translate(2247.140625 0)"/>
    <use xlink:href="#DejaVuSans-44" transform="translate(2328.921875 0)"/>
    <use xlink:href="#DejaVuSans-4c" transform="translate(2390.203125 0)"/>
    <use xlink:href="#DejaVuSans-57" transform="translate(2417.984375 0)"/>
    <use xlink:href="#DejaVuSans-56" transform="translate(2457.1875 0)"/>
    <use xlink:href="#DejaVuSans-3" transform="translate(2509.28125 0)"/>
    <use xlink:href="#DejaVuSans-49" transform="translate(2541.0625 0)"/>
    <use xlink:href="#DejaVuSans-52" transform="translate(2576.265625 0)"/>
    <use xlink:href="#DejaVuSans-55" transform="translate(2637.453125 0)"/>
    <use xlink:href="#DejaVuSans-3" transform="translate(2678.5625 0)"/>
    <use xlink:href="#DejaVuSans-59" transform="translate(2710.34375 0)"/>
    <use xlink:href="#DejaVuSans-48" transform="translate(2769.53125 0)"/>
    <use xlink:href="#DejaVuSans-55" transform="translate(2831.0625 0)"/>
    <use xlink:href="#DejaVuSans-4c" transform="translate(2872.171875 0)"/>
    <use xlink:href="#DejaVuSans-13af" transform="translate(2899.953125 0)"/>
    <use xlink:href="#DejaVuSans-48" transform="translate(2962.9375 0)"/>
    <use xlink:href="#DejaVuSans-47" transform="translate(3024.46875 0)"/>
    <use xlink:href="#DejaVuSans-3" transform="translate(3087.953125 0)"/>
    <use xlink:href="#DejaVuSans-55" transform="translate(3119.734375 0)"/>
    <use xlink:href="#DejaVuSans-48" transform="translate(3158.640625 0)"/>
    <use xlink:href="#DejaVuSans-44" transform="translate(3220.171875 0)"/>
    <use xlink:href="#DejaVuSans-47" transform="translate(3281.453125 0)"/>
    <use xlink:href="#DejaVuSans-56" transform="translate(3344.9375 0)"/>
    <use xlink:href="#DejaVuSans-3" transform="translate(3397.03125 0)"/>
    <use xlink:href="#DejaVuSans-b" transform="translate(3428.8125 0)"/>
    <use xlink:href="#DejaVuSans-4f" transform="translate(3467.828125 0)"/>
    <use xlink:href="#DejaVuSans-52" transform="translate(3495.609375 0)"/>
    <use xlink:href="#DejaVuSans-5a" transform="translate(3556.796875 0)"/>
    <use xlink:href="#DejaVuSans-3" transform="translate(3638.578125 0)"/>
    <use xlink:href="#DejaVuSans-47" transform="translate(3670.359375 0)"/>
    <use xlink:href="#DejaVuSans-58" transform="translate(3733.84375 0)"/>
    <use xlink:href="#DejaVuSans-57" transform="translate(3797.21875 0)"/>
    <use xlink:href="#DejaVuSans-5c" transform="translate(3836.421875 0)"/>
    <use xlink:href="#DejaVuSans-3" transform="translate(3895.609375 0)"/>
    <use xlink:href="#DejaVuSans-46" transform="translate(3927.390625 0)"/>
    <use xlink:href="#DejaVuSans-5c" transform="translate(3982.375 0)"/>
    <use xlink:href="#DejaVuSans-46" transform="translate(4041.5625 0)"/>
    <use xlink:href="#DejaVuSans-4f" transform="translate(4096.546875 0)"/>
    <use xlink:href="#DejaVuSans-48" transform="translate(4124.328125 0)"/>
    <use xlink:href="#DejaVuSans-3" transform="translate(4185.859375 0)"/>
    <use xlink:href="#DejaVuSans-45" transform="translate(4217.640625 0)"/>
    <use xlink:href="#DejaVuSans-5c" transform="translate(4281.125 0)"/>
    <use xlink:href="#DejaVuSans-3" transform="translate(4340.3125 0)"/>
    <use xlink:href="#DejaVuSans-47" transform="translate(4372.09375 0)"/>
    <use xlink:href="#DejaVuSans-48" transform="translate(4435.578125 0)"/>
    <use xlink:href="#DejaVuSans-56" transform="translate(4497.109375 0)"/>
    <use xlink:href="#DejaVuSans-4c" transform="translate(4549.203125 0)"/>
    <use xlink:href="#DejaVuSans-4a" transform="translate(4576.984375 0)"/>
    <use xlink:href="#DejaVuSans-51" transform="translate(4640.46875 0)"/>
    <use xlink:href="#DejaVuSans-c" transform="translate(4703.84375 0)"/>
   </g>
  </g>
 </g>
 <defs>
  <clipPath id="p55193b880a">
   <rect x="51.24" y="64.952" width="336.782483" height="151.394828"/>
  </clipPath>
  <clipPath id="pf7b8c689dd">
   <rect x="439.262483" y="64.952" width="336.782483" height="151.394828"/>
  </clipPath>
  <clipPath id="pf19bca21f8">
   <rect x="51.24" y="258.066828" width="336.782483" height="151.394828"/>
  </clipPath>
  <clipPath id="pc1c746f154">
   <rect x="439.262483" y="258.066828" width="336.782483" height="151.394828"/>
  </clipPath>
 </defs>
</svg>
