<?xml version="1.0" encoding="utf-8" standalone="no"?>
<!DOCTYPE svg PUBLIC "-//W3C//DTD SVG 1.1//EN"
  "http://www.w3.org/Graphics/SVG/1.1/DTD/svg11.dtd">
<svg xmlns:xlink="http://www.w3.org/1999/xlink" width="576pt" height="331.2pt" viewBox="0 0 576 331.2" xmlns="http://www.w3.org/2000/svg" version="1.1">
 <metadata>
  <rdf:RDF xmlns:dc="http://purl.org/dc/elements/1.1/" xmlns:cc="http://creativecommons.org/ns#" xmlns:rdf="http://www.w3.org/1999/02/22-rdf-syntax-ns#">
   <cc:Work>
    <dc:type rdf:resource="http://purl.org/dc/dcmitype/StillImage"/>
    <dc:date>2026-07-21T02:46:28.817865</dc:date>
    <dc:format>image/svg+xml</dc:format>
    <dc:creator>
     <cc:Agent>
      <dc:title>Matplotlib v3.11.1, https://matplotlib.org/</dc:title>
     </cc:Agent>
    </dc:creator>
   </cc:Work>
  </rdf:RDF>
 </metadata>
 <defs>
  <style type="text/css">*{stroke-linejoin: round; stroke-linecap: butt}</style>
 </defs>
 <g id="figure_1">
  <g id="patch_1">
   <path d="M 0 331.2 
L 576 331.2 
L 576 0 
L 0 0 
z
" style="fill: #0c0e14"/>
  </g>
  <g id="axes_1">
   <g id="patch_2">
    <path d="M 54.442344 275.503406 
L 565.2 275.503406 
L 565.2 39.460645 
L 54.442344 39.460645 
z
" style="fill: #0c0e14"/>
   </g>
   <g id="patch_3">
    <path d="M 77.658601 275.503406 
L 232.433648 275.503406 
L 232.433648 236.275347 
L 77.658601 236.275347 
z
" clip-path="url(#p5325269961)" style="fill: #3ad29f"/>
   </g>
   <g id="patch_4">
    <path d="M 387.208696 275.503406 
L 541.983743 275.503406 
L 541.983743 71.944625 
L 387.208696 71.944625 
z
" clip-path="url(#p5325269961)" style="fill: #4ea8ff"/>
   </g>
   <g id="matplotlib.axis_1">
    <g id="xtick_1">
     <g id="line2d_1">
      <defs>
       <path id="m4d1866911a" d="M 0 0 
L 0 3.5 
" style="stroke: #8b94a8; stroke-width: 0.8"/>
      </defs>
      <g>
       <use xlink:href="#m4d1866911a" x="155.046125" y="275.503406" style="fill: #8b94a8; stroke: #8b94a8; stroke-width: 0.8"/>
      </g>
     </g>
     <g id="text_1">
      <!-- Tarfa exact BF16 -->
      <g style="fill: #8b94a8" transform="translate(113.307062 291.10282) scale(0.1 -0.1)">
       <defs>
        <path id="DejaVuSans-37" d="M -19 4666 
L 3928 4666 
L 3928 4134 
L 2272 4134 
L 2272 0 
L 1638 0 
L 1638 4134 
L -19 4134 
L -19 4666 
z
" transform="scale(0.015625)"/>
        <path id="DejaVuSans-44" d="M 2194 1759 
Q 1497 1759 1228 1600 
Q 959 1441 959 1056 
Q 959 750 1161 570 
Q 1363 391 1709 391 
Q 2188 391 2477 730 
Q 2766 1069 2766 1631 
L 2766 1759 
L 2194 1759 
z
M 3341 1997 
L 3341 0 
L 2766 0 
L 2766 531 
Q 2569 213 2275 61 
Q 1981 -91 1556 -91 
Q 1019 -91 701 211 
Q 384 513 384 1019 
Q 384 1609 779 1909 
Q 1175 2209 1959 2209 
L 2766 2209 
L 2766 2266 
Q 2766 2663 2505 2880 
Q 2244 3097 1772 3097 
Q 1472 3097 1187 3025 
Q 903 2953 641 2809 
L 641 3341 
Q 956 3463 1253 3523 
Q 1550 3584 1831 3584 
Q 2591 3584 2966 3190 
Q 3341 2797 3341 1997 
z
" transform="scale(0.015625)"/>
        <path id="DejaVuSans-55" d="M 2631 2963 
Q 2534 3019 2420 3045 
Q 2306 3072 2169 3072 
Q 1681 3072 1420 2755 
Q 1159 2438 1159 1844 
L 1159 0 
L 581 0 
L 581 3500 
L 1159 3500 
L 1159 2956 
Q 1341 3275 1631 3429 
Q 1922 3584 2338 3584 
Q 2397 3584 2469 3576 
Q 2541 3569 2628 3553 
L 2631 2963 
z
" transform="scale(0.015625)"/>
        <path id="DejaVuSans-49" d="M 2375 4863 
L 2375 4384 
L 1825 4384 
Q 1516 4384 1395 4259 
Q 1275 4134 1275 3809 
L 1275 3500 
L 2222 3500 
L 2222 3053 
L 1275 3053 
L 1275 0 
L 697 0 
L 697 3053 
L 147 3053 
L 147 3500 
L 697 3500 
L 697 3744 
Q 697 4328 969 4595 
Q 1241 4863 1831 4863 
L 2375 4863 
z
" transform="scale(0.015625)"/>
        <path id="DejaVuSans-3" transform="scale(0.015625)"/>
        <path id="DejaVuSans-48" d="M 3597 1894 
L 3597 1613 
L 953 1613 
Q 991 1019 1311 708 
Q 1631 397 2203 397 
Q 2534 397 2845 478 
Q 3156 559 3463 722 
L 3463 178 
Q 3153 47 2828 -22 
Q 2503 -91 2169 -91 
Q 1331 -91 842 396 
Q 353 884 353 1716 
Q 353 2575 817 3079 
Q 1281 3584 2069 3584 
Q 2775 3584 3186 3129 
Q 3597 2675 3597 1894 
z
M 3022 2063 
Q 3016 2534 2758 2815 
Q 2500 3097 2075 3097 
Q 1594 3097 1305 2825 
Q 1016 2553 972 2059 
L 3022 2063 
z
" transform="scale(0.015625)"/>
        <path id="DejaVuSans-5b" d="M 3513 3500 
L 2247 1797 
L 3578 0 
L 2900 0 
L 1881 1375 
L 863 0 
L 184 0 
L 1544 1831 
L 300 3500 
L 978 3500 
L 1906 2253 
L 2834 3500 
L 3513 3500 
z
" transform="scale(0.015625)"/>
        <path id="DejaVuSans-46" d="M 3122 3366 
L 3122 2828 
Q 2878 2963 2633 3030 
Q 2388 3097 2138 3097 
Q 1578 3097 1268 2742 
Q 959 2388 959 1747 
Q 959 1106 1268 751 
Q 1578 397 2138 397 
Q 2388 397 2633 464 
Q 2878 531 3122 666 
L 3122 134 
Q 2881 22 2623 -34 
Q 2366 -91 2075 -91 
Q 1284 -91 818 406 
Q 353 903 353 1747 
Q 353 2603 823 3093 
Q 1294 3584 2113 3584 
Q 2378 3584 2631 3529 
Q 2884 3475 3122 3366 
z
" transform="scale(0.015625)"/>
        <path id="DejaVuSans-57" d="M 1172 4494 
L 1172 3500 
L 2356 3500 
L 2356 3053 
L 1172 3053 
L 1172 1153 
Q 1172 725 1289 603 
Q 1406 481 1766 481 
L 2356 481 
L 2356 0 
L 1766 0 
Q 1100 0 847 248 
Q 594 497 594 1153 
L 594 3053 
L 172 3053 
L 172 3500 
L 594 3500 
L 594 4494 
L 1172 4494 
z
" transform="scale(0.015625)"/>
        <path id="DejaVuSans-25" d="M 1259 2228 
L 1259 519 
L 2272 519 
Q 2781 519 3026 730 
Q 3272 941 3272 1375 
Q 3272 1813 3026 2020 
Q 2781 2228 2272 2228 
L 1259 2228 
z
M 1259 4147 
L 1259 2741 
L 2194 2741 
Q 2656 2741 2882 2914 
Q 3109 3088 3109 3444 
Q 3109 3797 2882 3972 
Q 2656 4147 2194 4147 
L 1259 4147 
z
M 628 4666 
L 2241 4666 
Q 2963 4666 3353 4366 
Q 3744 4066 3744 3513 
Q 3744 3084 3544 2831 
Q 3344 2578 2956 2516 
Q 3422 2416 3680 2098 
Q 3938 1781 3938 1306 
Q 3938 681 3513 340 
Q 3088 0 2303 0 
L 628 0 
L 628 4666 
z
" transform="scale(0.015625)"/>
        <path id="DejaVuSans-29" d="M 628 4666 
L 3309 4666 
L 3309 4134 
L 1259 4134 
L 1259 2759 
L 3109 2759 
L 3109 2228 
L 1259 2228 
L 1259 0 
L 628 0 
L 628 4666 
z
" transform="scale(0.015625)"/>
        <path id="DejaVuSans-14" d="M 794 531 
L 1825 531 
L 1825 4091 
L 703 3866 
L 703 4441 
L 1819 4666 
L 2450 4666 
L 2450 531 
L 3481 531 
L 3481 0 
L 794 0 
L 794 531 
z
" transform="scale(0.015625)"/>
        <path id="DejaVuSans-19" d="M 2113 2584 
Q 1688 2584 1439 2293 
Q 1191 2003 1191 1497 
Q 1191 994 1439 701 
Q 1688 409 2113 409 
Q 2538 409 2786 701 
Q 3034 994 3034 1497 
Q 3034 2003 2786 2293 
Q 2538 2584 2113 2584 
z
M 3366 4563 
L 3366 3988 
Q 3128 4100 2886 4159 
Q 2644 4219 2406 4219 
Q 1781 4219 1451 3797 
Q 1122 3375 1075 2522 
Q 1259 2794 1537 2939 
Q 1816 3084 2150 3084 
Q 2853 3084 3261 2657 
Q 3669 2231 3669 1497 
Q 3669 778 3244 343 
Q 2819 -91 2113 -91 
Q 1303 -91 875 529 
Q 447 1150 447 2328 
Q 447 3434 972 4092 
Q 1497 4750 2381 4750 
Q 2619 4750 2861 4703 
Q 3103 4656 3366 4563 
z
" transform="scale(0.015625)"/>
       </defs>
       <use xlink:href="#DejaVuSans-37"/>
       <use xlink:href="#DejaVuSans-44" transform="translate(44.53125 0)"/>
       <use xlink:href="#DejaVuSans-55" transform="translate(105.8125 0)"/>
       <use xlink:href="#DejaVuSans-49" transform="translate(146.921875 0)"/>
       <use xlink:href="#DejaVuSans-44" transform="translate(182.125 0)"/>
       <use xlink:href="#DejaVuSans-3" transform="translate(243.40625 0)"/>
       <use xlink:href="#DejaVuSans-48" transform="translate(275.1875 0)"/>
       <use xlink:href="#DejaVuSans-5b" transform="translate(334.96875 0)"/>
       <use xlink:href="#DejaVuSans-44" transform="translate(394.15625 0)"/>
       <use xlink:href="#DejaVuSans-46" transform="translate(455.4375 0)"/>
       <use xlink:href="#DejaVuSans-57" transform="translate(510.421875 0)"/>
       <use xlink:href="#DejaVuSans-3" transform="translate(549.625 0)"/>
       <use xlink:href="#DejaVuSans-25" transform="translate(581.40625 0)"/>
       <use xlink:href="#DejaVuSans-29" transform="translate(650.015625 0)"/>
       <use xlink:href="#DejaVuSans-14" transform="translate(707.53125 0)"/>
       <use xlink:href="#DejaVuSans-19" transform="translate(771.15625 0)"/>
      </g>
      <!-- bit-identical weights -->
      <g style="fill: #8b94a8" transform="translate(104.307062 303.105555) scale(0.1 -0.1)">
       <defs>
        <path id="DejaVuSans-45" d="M 3116 1747 
Q 3116 2381 2855 2742 
Q 2594 3103 2138 3103 
Q 1681 3103 1420 2742 
Q 1159 2381 1159 1747 
Q 1159 1113 1420 752 
Q 1681 391 2138 391 
Q 2594 391 2855 752 
Q 3116 1113 3116 1747 
z
M 1159 2969 
Q 1341 3281 1617 3432 
Q 1894 3584 2278 3584 
Q 2916 3584 3314 3078 
Q 3713 2572 3713 1747 
Q 3713 922 3314 415 
Q 2916 -91 2278 -91 
Q 1894 -91 1617 61 
Q 1341 213 1159 525 
L 1159 0 
L 581 0 
L 581 4863 
L 1159 4863 
L 1159 2969 
z
" transform="scale(0.015625)"/>
        <path id="DejaVuSans-4c" d="M 603 3500 
L 1178 3500 
L 1178 0 
L 603 0 
L 603 3500 
z
M 603 4863 
L 1178 4863 
L 1178 4134 
L 603 4134 
L 603 4863 
z
" transform="scale(0.015625)"/>
        <path id="DejaVuSans-10" d="M 313 2009 
L 1997 2009 
L 1997 1497 
L 313 1497 
L 313 2009 
z
" transform="scale(0.015625)"/>
        <path id="DejaVuSans-47" d="M 2906 2969 
L 2906 4863 
L 3481 4863 
L 3481 0 
L 2906 0 
L 2906 525 
Q 2725 213 2448 61 
Q 2172 -91 1784 -91 
Q 1150 -91 751 415 
Q 353 922 353 1747 
Q 353 2572 751 3078 
Q 1150 3584 1784 3584 
Q 2172 3584 2448 3432 
Q 2725 3281 2906 2969 
z
M 947 1747 
Q 947 1113 1208 752 
Q 1469 391 1925 391 
Q 2381 391 2643 752 
Q 2906 1113 2906 1747 
Q 2906 2381 2643 2742 
Q 2381 3103 1925 3103 
Q 1469 3103 1208 2742 
Q 947 2381 947 1747 
z
" transform="scale(0.015625)"/>
        <path id="DejaVuSans-51" d="M 3513 2113 
L 3513 0 
L 2938 0 
L 2938 2094 
Q 2938 2591 2744 2837 
Q 2550 3084 2163 3084 
Q 1697 3084 1428 2787 
Q 1159 2491 1159 1978 
L 1159 0 
L 581 0 
L 581 3500 
L 1159 3500 
L 1159 2956 
Q 1366 3272 1645 3428 
Q 1925 3584 2291 3584 
Q 2894 3584 3203 3211 
Q 3513 2838 3513 2113 
z
" transform="scale(0.015625)"/>
        <path id="DejaVuSans-4f" d="M 603 4863 
L 1178 4863 
L 1178 0 
L 603 0 
L 603 4863 
z
" transform="scale(0.015625)"/>
        <path id="DejaVuSans-5a" d="M 269 3500 
L 844 3500 
L 1563 769 
L 2278 3500 
L 2956 3500 
L 3675 769 
L 4391 3500 
L 4966 3500 
L 4050 0 
L 3372 0 
L 2619 2869 
L 1863 0 
L 1184 0 
L 269 3500 
z
" transform="scale(0.015625)"/>
        <path id="DejaVuSans-4a" d="M 2906 1791 
Q 2906 2416 2648 2759 
Q 2391 3103 1925 3103 
Q 1463 3103 1205 2759 
Q 947 2416 947 1791 
Q 947 1169 1205 825 
Q 1463 481 1925 481 
Q 2391 481 2648 825 
Q 2906 1169 2906 1791 
z
M 3481 434 
Q 3481 -459 3084 -895 
Q 2688 -1331 1869 -1331 
Q 1566 -1331 1297 -1286 
Q 1028 -1241 775 -1147 
L 775 -588 
Q 1028 -725 1275 -790 
Q 1522 -856 1778 -856 
Q 2344 -856 2625 -561 
Q 2906 -266 2906 331 
L 2906 616 
Q 2728 306 2450 153 
Q 2172 0 1784 0 
Q 1141 0 747 490 
Q 353 981 353 1791 
Q 353 2603 747 3093 
Q 1141 3584 1784 3584 
Q 2172 3584 2450 3431 
Q 2728 3278 2906 2969 
L 2906 3500 
L 3481 3500 
L 3481 434 
z
" transform="scale(0.015625)"/>
        <path id="DejaVuSans-4b" d="M 3513 2113 
L 3513 0 
L 2938 0 
L 2938 2094 
Q 2938 2591 2744 2837 
Q 2550 3084 2163 3084 
Q 1697 3084 1428 2787 
Q 1159 2491 1159 1978 
L 1159 0 
L 581 0 
L 581 4863 
L 1159 4863 
L 1159 2956 
Q 1366 3272 1645 3428 
Q 1925 3584 2291 3584 
Q 2894 3584 3203 3211 
Q 3513 2838 3513 2113 
z
" transform="scale(0.015625)"/>
        <path id="DejaVuSans-56" d="M 2834 3397 
L 2834 2853 
Q 2591 2978 2328 3040 
Q 2066 3103 1784 3103 
Q 1356 3103 1142 2972 
Q 928 2841 928 2578 
Q 928 2378 1081 2264 
Q 1234 2150 1697 2047 
L 1894 2003 
Q 2506 1872 2764 1633 
Q 3022 1394 3022 966 
Q 3022 478 2636 193 
Q 2250 -91 1575 -91 
Q 1294 -91 989 -36 
Q 684 19 347 128 
L 347 722 
Q 666 556 975 473 
Q 1284 391 1588 391 
Q 1994 391 2212 530 
Q 2431 669 2431 922 
Q 2431 1156 2273 1281 
Q 2116 1406 1581 1522 
L 1381 1569 
Q 847 1681 609 1914 
Q 372 2147 372 2553 
Q 372 3047 722 3315 
Q 1072 3584 1716 3584 
Q 2034 3584 2315 3537 
Q 2597 3491 2834 3397 
z
" transform="scale(0.015625)"/>
       </defs>
       <use xlink:href="#DejaVuSans-45"/>
       <use xlink:href="#DejaVuSans-4c" transform="translate(63.484375 0)"/>
       <use xlink:href="#DejaVuSans-57" transform="translate(91.265625 0)"/>
       <use xlink:href="#DejaVuSans-10" transform="translate(130.46875 0)"/>
       <use xlink:href="#DejaVuSans-4c" transform="translate(166.546875 0)"/>
       <use xlink:href="#DejaVuSans-47" transform="translate(194.328125 0)"/>
       <use xlink:href="#DejaVuSans-48" transform="translate(257.8125 0)"/>
       <use xlink:href="#DejaVuSans-51" transform="translate(319.34375 0)"/>
       <use xlink:href="#DejaVuSans-57" transform="translate(382.71875 0)"/>
       <use xlink:href="#DejaVuSans-4c" transform="translate(421.921875 0)"/>
       <use xlink:href="#DejaVuSans-46" transform="translate(449.703125 0)"/>
       <use xlink:href="#DejaVuSans-44" transform="translate(504.6875 0)"/>
       <use xlink:href="#DejaVuSans-4f" transform="translate(565.96875 0)"/>
       <use xlink:href="#DejaVuSans-3" transform="translate(593.75 0)"/>
       <use xlink:href="#DejaVuSans-5a" transform="translate(625.53125 0)"/>
       <use xlink:href="#DejaVuSans-48" transform="translate(707.3125 0)"/>
       <use xlink:href="#DejaVuSans-4c" transform="translate(768.84375 0)"/>
       <use xlink:href="#DejaVuSans-4a" transform="translate(796.625 0)"/>
       <use xlink:href="#DejaVuSans-4b" transform="translate(860.109375 0)"/>
       <use xlink:href="#DejaVuSans-57" transform="translate(923.484375 0)"/>
       <use xlink:href="#DejaVuSans-56" transform="translate(962.6875 0)"/>
      </g>
     </g>
    </g>
    <g id="xtick_2">
     <g id="line2d_2">
      <g>
       <use xlink:href="#m4d1866911a" x="464.596219" y="275.503406" style="fill: #8b94a8; stroke: #8b94a8; stroke-width: 0.8"/>
      </g>
     </g>
     <g id="text_2">
      <!-- Tarfa fast int4 -->
      <g style="fill: #8b94a8" transform="translate(430.1595 291.10282) scale(0.1 -0.1)">
       <defs>
        <path id="DejaVuSans-17" d="M 2419 4116 
L 825 1625 
L 2419 1625 
L 2419 4116 
z
M 2253 4666 
L 3047 4666 
L 3047 1625 
L 3713 1625 
L 3713 1100 
L 3047 1100 
L 3047 0 
L 2419 0 
L 2419 1100 
L 313 1100 
L 313 1709 
L 2253 4666 
z
" transform="scale(0.015625)"/>
       </defs>
       <use xlink:href="#DejaVuSans-37"/>
       <use xlink:href="#DejaVuSans-44" transform="translate(44.53125 0)"/>
       <use xlink:href="#DejaVuSans-55" transform="translate(105.8125 0)"/>
       <use xlink:href="#DejaVuSans-49" transform="translate(146.921875 0)"/>
       <use xlink:href="#DejaVuSans-44" transform="translate(182.125 0)"/>
       <use xlink:href="#DejaVuSans-3" transform="translate(243.40625 0)"/>
       <use xlink:href="#DejaVuSans-49" transform="translate(275.1875 0)"/>
       <use xlink:href="#DejaVuSans-44" transform="translate(310.390625 0)"/>
       <use xlink:href="#DejaVuSans-56" transform="translate(371.671875 0)"/>
       <use xlink:href="#DejaVuSans-57" transform="translate(423.765625 0)"/>
       <use xlink:href="#DejaVuSans-3" transform="translate(462.96875 0)"/>
       <use xlink:href="#DejaVuSans-4c" transform="translate(494.75 0)"/>
       <use xlink:href="#DejaVuSans-51" transform="translate(522.53125 0)"/>
       <use xlink:href="#DejaVuSans-57" transform="translate(585.90625 0)"/>
       <use xlink:href="#DejaVuSans-17" transform="translate(625.109375 0)"/>
      </g>
      <!-- quantized, labeled non-exact -->
      <g style="fill: #8b94a8" transform="translate(391.762625 303.105555) scale(0.1 -0.1)">
       <defs>
        <path id="DejaVuSans-54" d="M 947 1747 
Q 947 1113 1208 752 
Q 1469 391 1925 391 
Q 2381 391 2643 752 
Q 2906 1113 2906 1747 
Q 2906 2381 2643 2742 
Q 2381 3103 1925 3103 
Q 1469 3103 1208 2742 
Q 947 2381 947 1747 
z
M 2906 525 
Q 2725 213 2448 61 
Q 2172 -91 1784 -91 
Q 1150 -91 751 415 
Q 353 922 353 1747 
Q 353 2572 751 3078 
Q 1150 3584 1784 3584 
Q 2172 3584 2448 3432 
Q 2725 3281 2906 2969 
L 2906 3500 
L 3481 3500 
L 3481 -1331 
L 2906 -1331 
L 2906 525 
z
" transform="scale(0.015625)"/>
        <path id="DejaVuSans-58" d="M 544 1381 
L 544 3500 
L 1119 3500 
L 1119 1403 
Q 1119 906 1312 657 
Q 1506 409 1894 409 
Q 2359 409 2629 706 
Q 2900 1003 2900 1516 
L 2900 3500 
L 3475 3500 
L 3475 0 
L 2900 0 
L 2900 538 
Q 2691 219 2414 64 
Q 2138 -91 1772 -91 
Q 1169 -91 856 284 
Q 544 659 544 1381 
z
M 1991 3584 
L 1991 3584 
z
" transform="scale(0.015625)"/>
        <path id="DejaVuSans-5d" d="M 353 3500 
L 3084 3500 
L 3084 2975 
L 922 459 
L 3084 459 
L 3084 0 
L 275 0 
L 275 525 
L 2438 3041 
L 353 3041 
L 353 3500 
z
" transform="scale(0.015625)"/>
        <path id="DejaVuSans-f" d="M 750 794 
L 1409 794 
L 1409 256 
L 897 -744 
L 494 -744 
L 750 256 
L 750 794 
z
" transform="scale(0.015625)"/>
        <path id="DejaVuSans-52" d="M 1959 3097 
Q 1497 3097 1228 2736 
Q 959 2375 959 1747 
Q 959 1119 1226 758 
Q 1494 397 1959 397 
Q 2419 397 2687 759 
Q 2956 1122 2956 1747 
Q 2956 2369 2687 2733 
Q 2419 3097 1959 3097 
z
M 1959 3584 
Q 2709 3584 3137 3096 
Q 3566 2609 3566 1747 
Q 3566 888 3137 398 
Q 2709 -91 1959 -91 
Q 1206 -91 779 398 
Q 353 888 353 1747 
Q 353 2609 779 3096 
Q 1206 3584 1959 3584 
z
" transform="scale(0.015625)"/>
       </defs>
       <use xlink:href="#DejaVuSans-54"/>
       <use xlink:href="#DejaVuSans-58" transform="translate(63.484375 0)"/>
       <use xlink:href="#DejaVuSans-44" transform="translate(126.859375 0)"/>
       <use xlink:href="#DejaVuSans-51" transform="translate(188.140625 0)"/>
       <use xlink:href="#DejaVuSans-57" transform="translate(251.515625 0)"/>
       <use xlink:href="#DejaVuSans-4c" transform="translate(290.71875 0)"/>
       <use xlink:href="#DejaVuSans-5d" transform="translate(318.5 0)"/>
       <use xlink:href="#DejaVuSans-48" transform="translate(370.984375 0)"/>
       <use xlink:href="#DejaVuSans-47" transform="translate(432.515625 0)"/>
       <use xlink:href="#DejaVuSans-f" transform="translate(496 0)"/>
       <use xlink:href="#DejaVuSans-3" transform="translate(527.78125 0)"/>
       <use xlink:href="#DejaVuSans-4f" transform="translate(559.5625 0)"/>
       <use xlink:href="#DejaVuSans-44" transform="translate(587.34375 0)"/>
       <use xlink:href="#DejaVuSans-45" transform="translate(648.625 0)"/>
       <use xlink:href="#DejaVuSans-48" transform="translate(712.109375 0)"/>
       <use xlink:href="#DejaVuSans-4f" transform="translate(773.640625 0)"/>
       <use xlink:href="#DejaVuSans-48" transform="translate(801.421875 0)"/>
       <use xlink:href="#DejaVuSans-47" transform="translate(862.953125 0)"/>
       <use xlink:href="#DejaVuSans-3" transform="translate(926.4375 0)"/>
       <use xlink:href="#DejaVuSans-51" transform="translate(958.21875 0)"/>
       <use xlink:href="#DejaVuSans-52" transform="translate(1021.59375 0)"/>
       <use xlink:href="#DejaVuSans-51" transform="translate(1082.78125 0)"/>
       <use xlink:href="#DejaVuSans-10" transform="translate(1146.15625 0)"/>
       <use xlink:href="#DejaVuSans-48" transform="translate(1182.234375 0)"/>
       <use xlink:href="#DejaVuSans-5b" transform="translate(1242.015625 0)"/>
       <use xlink:href="#DejaVuSans-44" transform="translate(1301.203125 0)"/>
       <use xlink:href="#DejaVuSans-46" transform="translate(1362.484375 0)"/>
       <use xlink:href="#DejaVuSans-57" transform="translate(1417.46875 0)"/>
      </g>
     </g>
    </g>
   </g>
   <g id="matplotlib.axis_2">
    <g id="ytick_1">
     <g id="line2d_3">
      <defs>
       <path id="m34ac098cd9" d="M 0 0 
L -3.5 0 
" style="stroke: #8b94a8; stroke-width: 0.8"/>
      </defs>
      <g>
       <use xlink:href="#m34ac098cd9" x="54.442344" y="275.503406" style="fill: #8b94a8; stroke: #8b94a8; stroke-width: 0.8"/>
      </g>
     </g>
     <g id="text_3">
      <!-- 0.00 -->
      <g style="fill: #8b94a8" transform="translate(25.176719 279.302234) scale(0.1 -0.1)">
       <defs>
        <path id="DejaVuSans-13" d="M 2034 4250 
Q 1547 4250 1301 3770 
Q 1056 3291 1056 2328 
Q 1056 1369 1301 889 
Q 1547 409 2034 409 
Q 2525 409 2770 889 
Q 3016 1369 3016 2328 
Q 3016 3291 2770 3770 
Q 2525 4250 2034 4250 
z
M 2034 4750 
Q 2819 4750 3233 4129 
Q 3647 3509 3647 2328 
Q 3647 1150 3233 529 
Q 2819 -91 2034 -91 
Q 1250 -91 836 529 
Q 422 1150 422 2328 
Q 422 3509 836 4129 
Q 1250 4750 2034 4750 
z
" transform="scale(0.015625)"/>
        <path id="DejaVuSans-11" d="M 684 794 
L 1344 794 
L 1344 0 
L 684 0 
L 684 794 
z
" transform="scale(0.015625)"/>
       </defs>
       <use xlink:href="#DejaVuSans-13"/>
       <use xlink:href="#DejaVuSans-11" transform="translate(63.625 0)"/>
       <use xlink:href="#DejaVuSans-13" transform="translate(95.40625 0)"/>
       <use xlink:href="#DejaVuSans-13" transform="translate(159.03125 0)"/>
      </g>
     </g>
    </g>
    <g id="ytick_2">
     <g id="line2d_4">
      <g>
       <use xlink:href="#m34ac098cd9" x="54.442344" y="247.403077" style="fill: #8b94a8; stroke: #8b94a8; stroke-width: 0.8"/>
      </g>
     </g>
     <g id="text_4">
      <!-- 0.25 -->
      <g style="fill: #8b94a8" transform="translate(25.176719 251.201906) scale(0.1 -0.1)">
       <defs>
        <path id="DejaVuSans-15" d="M 1228 531 
L 3431 531 
L 3431 0 
L 469 0 
L 469 531 
Q 828 903 1448 1529 
Q 2069 2156 2228 2338 
Q 2531 2678 2651 2914 
Q 2772 3150 2772 3378 
Q 2772 3750 2511 3984 
Q 2250 4219 1831 4219 
Q 1534 4219 1204 4116 
Q 875 4013 500 3803 
L 500 4441 
Q 881 4594 1212 4672 
Q 1544 4750 1819 4750 
Q 2544 4750 2975 4387 
Q 3406 4025 3406 3419 
Q 3406 3131 3298 2873 
Q 3191 2616 2906 2266 
Q 2828 2175 2409 1742 
Q 1991 1309 1228 531 
z
" transform="scale(0.015625)"/>
        <path id="DejaVuSans-18" d="M 691 4666 
L 3169 4666 
L 3169 4134 
L 1269 4134 
L 1269 2991 
Q 1406 3038 1543 3061 
Q 1681 3084 1819 3084 
Q 2600 3084 3056 2656 
Q 3513 2228 3513 1497 
Q 3513 744 3044 326 
Q 2575 -91 1722 -91 
Q 1428 -91 1123 -41 
Q 819 9 494 109 
L 494 744 
Q 775 591 1075 516 
Q 1375 441 1709 441 
Q 2250 441 2565 725 
Q 2881 1009 2881 1497 
Q 2881 1984 2565 2268 
Q 2250 2553 1709 2553 
Q 1456 2553 1204 2497 
Q 953 2441 691 2322 
L 691 4666 
z
" transform="scale(0.015625)"/>
       </defs>
       <use xlink:href="#DejaVuSans-13"/>
       <use xlink:href="#DejaVuSans-11" transform="translate(63.625 0)"/>
       <use xlink:href="#DejaVuSans-15" transform="translate(95.40625 0)"/>
       <use xlink:href="#DejaVuSans-18" transform="translate(159.03125 0)"/>
      </g>
     </g>
    </g>
    <g id="ytick_3">
     <g id="line2d_5">
      <g>
       <use xlink:href="#m34ac098cd9" x="54.442344" y="219.302749" style="fill: #8b94a8; stroke: #8b94a8; stroke-width: 0.8"/>
      </g>
     </g>
     <g id="text_5">
      <!-- 0.50 -->
      <g style="fill: #8b94a8" transform="translate(25.176719 223.101577) scale(0.1 -0.1)">
       <use xlink:href="#DejaVuSans-13"/>
       <use xlink:href="#DejaVuSans-11" transform="translate(63.625 0)"/>
       <use xlink:href="#DejaVuSans-18" transform="translate(95.40625 0)"/>
       <use xlink:href="#DejaVuSans-13" transform="translate(159.03125 0)"/>
      </g>
     </g>
    </g>
    <g id="ytick_4">
     <g id="line2d_6">
      <g>
       <use xlink:href="#m34ac098cd9" x="54.442344" y="191.20242" style="fill: #8b94a8; stroke: #8b94a8; stroke-width: 0.8"/>
      </g>
     </g>
     <g id="text_6">
      <!-- 0.75 -->
      <g style="fill: #8b94a8" transform="translate(25.176719 195.001248) scale(0.1 -0.1)">
       <defs>
        <path id="DejaVuSans-1a" d="M 525 4666 
L 3525 4666 
L 3525 4397 
L 1831 0 
L 1172 0 
L 2766 4134 
L 525 4134 
L 525 4666 
z
" transform="scale(0.015625)"/>
       </defs>
       <use xlink:href="#DejaVuSans-13"/>
       <use xlink:href="#DejaVuSans-11" transform="translate(63.625 0)"/>
       <use xlink:href="#DejaVuSans-1a" transform="translate(95.40625 0)"/>
       <use xlink:href="#DejaVuSans-18" transform="translate(159.03125 0)"/>
      </g>
     </g>
    </g>
    <g id="ytick_5">
     <g id="line2d_7">
      <g>
       <use xlink:href="#m34ac098cd9" x="54.442344" y="163.102091" style="fill: #8b94a8; stroke: #8b94a8; stroke-width: 0.8"/>
      </g>
     </g>
     <g id="text_7">
      <!-- 1.00 -->
      <g style="fill: #8b94a8" transform="translate(25.176719 166.900919) scale(0.1 -0.1)">
       <use xlink:href="#DejaVuSans-14"/>
       <use xlink:href="#DejaVuSans-11" transform="translate(63.625 0)"/>
       <use xlink:href="#DejaVuSans-13" transform="translate(95.40625 0)"/>
       <use xlink:href="#DejaVuSans-13" transform="translate(159.03125 0)"/>
      </g>
     </g>
    </g>
    <g id="ytick_6">
     <g id="line2d_8">
      <g>
       <use xlink:href="#m34ac098cd9" x="54.442344" y="135.001762" style="fill: #8b94a8; stroke: #8b94a8; stroke-width: 0.8"/>
      </g>
     </g>
     <g id="text_8">
      <!-- 1.25 -->
      <g style="fill: #8b94a8" transform="translate(25.176719 138.80059) scale(0.1 -0.1)">
       <use xlink:href="#DejaVuSans-14"/>
       <use xlink:href="#DejaVuSans-11" transform="translate(63.625 0)"/>
       <use xlink:href="#DejaVuSans-15" transform="translate(95.40625 0)"/>
       <use xlink:href="#DejaVuSans-18" transform="translate(159.03125 0)"/>
      </g>
     </g>
    </g>
    <g id="ytick_7">
     <g id="line2d_9">
      <g>
       <use xlink:href="#m34ac098cd9" x="54.442344" y="106.901434" style="fill: #8b94a8; stroke: #8b94a8; stroke-width: 0.8"/>
      </g>
     </g>
     <g id="text_9">
      <!-- 1.50 -->
      <g style="fill: #8b94a8" transform="translate(25.176719 110.700262) scale(0.1 -0.1)">
       <use xlink:href="#DejaVuSans-14"/>
       <use xlink:href="#DejaVuSans-11" transform="translate(63.625 0)"/>
       <use xlink:href="#DejaVuSans-18" transform="translate(95.40625 0)"/>
       <use xlink:href="#DejaVuSans-13" transform="translate(159.03125 0)"/>
      </g>
     </g>
    </g>
    <g id="ytick_8">
     <g id="line2d_10">
      <g>
       <use xlink:href="#m34ac098cd9" x="54.442344" y="78.801105" style="fill: #8b94a8; stroke: #8b94a8; stroke-width: 0.8"/>
      </g>
     </g>
     <g id="text_10">
      <!-- 1.75 -->
      <g style="fill: #8b94a8" transform="translate(25.176719 82.599933) scale(0.1 -0.1)">
       <use xlink:href="#DejaVuSans-14"/>
       <use xlink:href="#DejaVuSans-11" transform="translate(63.625 0)"/>
       <use xlink:href="#DejaVuSans-1a" transform="translate(95.40625 0)"/>
       <use xlink:href="#DejaVuSans-18" transform="translate(159.03125 0)"/>
      </g>
     </g>
    </g>
    <g id="ytick_9">
     <g id="line2d_11">
      <g>
       <use xlink:href="#m34ac098cd9" x="54.442344" y="50.700776" style="fill: #8b94a8; stroke: #8b94a8; stroke-width: 0.8"/>
      </g>
     </g>
     <g id="text_11">
      <!-- 2.00 -->
      <g style="fill: #8b94a8" transform="translate(25.176719 54.499604) scale(0.1 -0.1)">
       <use xlink:href="#DejaVuSans-15"/>
       <use xlink:href="#DejaVuSans-11" transform="translate(63.625 0)"/>
       <use xlink:href="#DejaVuSans-13" transform="translate(95.40625 0)"/>
       <use xlink:href="#DejaVuSans-13" transform="translate(159.03125 0)"/>
      </g>
     </g>
    </g>
    <g id="text_12">
     <!-- decode tokens / second -->
     <g style="fill: #8b94a8" transform="translate(18.774375 216.663275) rotate(-90) scale(0.1 -0.1)">
      <defs>
       <path id="DejaVuSans-4e" d="M 581 4863 
L 1159 4863 
L 1159 1991 
L 2875 3500 
L 3609 3500 
L 1753 1863 
L 3688 0 
L 2938 0 
L 1159 1709 
L 1159 0 
L 581 0 
L 581 4863 
z
" transform="scale(0.015625)"/>
       <path id="DejaVuSans-12" d="M 1625 4666 
L 2156 4666 
L 531 -594 
L 0 -594 
L 1625 4666 
z
" transform="scale(0.015625)"/>
      </defs>
      <use xlink:href="#DejaVuSans-47"/>
      <use xlink:href="#DejaVuSans-48" transform="translate(63.484375 0)"/>
      <use xlink:href="#DejaVuSans-46" transform="translate(125.015625 0)"/>
      <use xlink:href="#DejaVuSans-52" transform="translate(180 0)"/>
      <use xlink:href="#DejaVuSans-47" transform="translate(241.1875 0)"/>
      <use xlink:href="#DejaVuSans-48" transform="translate(304.671875 0)"/>
      <use xlink:href="#DejaVuSans-3" transform="translate(366.203125 0)"/>
      <use xlink:href="#DejaVuSans-57" transform="translate(397.984375 0)"/>
      <use xlink:href="#DejaVuSans-52" transform="translate(437.1875 0)"/>
      <use xlink:href="#DejaVuSans-4e" transform="translate(498.375 0)"/>
      <use xlink:href="#DejaVuSans-48" transform="translate(552.71875 0)"/>
      <use xlink:href="#DejaVuSans-51" transform="translate(614.25 0)"/>
      <use xlink:href="#DejaVuSans-56" transform="translate(677.625 0)"/>
      <use xlink:href="#DejaVuSans-3" transform="translate(729.71875 0)"/>
      <use xlink:href="#DejaVuSans-12" transform="translate(761.5 0)"/>
      <use xlink:href="#DejaVuSans-3" transform="translate(795.1875 0)"/>
      <use xlink:href="#DejaVuSans-56" transform="translate(826.96875 0)"/>
      <use xlink:href="#DejaVuSans-48" transform="translate(879.0625 0)"/>
      <use xlink:href="#DejaVuSans-46" transform="translate(940.59375 0)"/>
      <use xlink:href="#DejaVuSans-52" transform="translate(995.578125 0)"/>
      <use xlink:href="#DejaVuSans-51" transform="translate(1056.765625 0)"/>
      <use xlink:href="#DejaVuSans-47" transform="translate(1120.140625 0)"/>
     </g>
    </g>
   </g>
   <g id="patch_5">
    <path d="M 54.442344 275.503406 
L 54.442344 39.460645 
" style="fill: none; stroke: #2a3145; stroke-width: 0.8; stroke-linejoin: miter; stroke-linecap: square"/>
   </g>
   <g id="patch_6">
    <path d="M 565.2 275.503406 
L 565.2 39.460645 
" style="fill: none; stroke: #2a3145; stroke-width: 0.8; stroke-linejoin: miter; stroke-linecap: square"/>
   </g>
   <g id="patch_7">
    <path d="M 54.442344 275.503406 
L 565.2 275.503406 
" style="fill: none; stroke: #2a3145; stroke-width: 0.8; stroke-linejoin: miter; stroke-linecap: square"/>
   </g>
   <g id="patch_8">
    <path d="M 54.442344 39.460645 
L 565.2 39.460645 
" style="fill: none; stroke: #2a3145; stroke-width: 0.8; stroke-linejoin: miter; stroke-linecap: square"/>
   </g>
   <g id="text_13">
    <!-- 0.35 tok/s -->
    <g style="fill: #e7ecf5" transform="translate(121.411437 231.779295) scale(0.12 -0.12)">
     <defs>
      <path id="DejaVuSans-Bold-13" d="M 2944 2338 
Q 2944 3213 2780 3570 
Q 2616 3928 2228 3928 
Q 1841 3928 1675 3570 
Q 1509 3213 1509 2338 
Q 1509 1453 1675 1090 
Q 1841 728 2228 728 
Q 2613 728 2778 1090 
Q 2944 1453 2944 2338 
z
M 4147 2328 
Q 4147 1169 3647 539 
Q 3147 -91 2228 -91 
Q 1306 -91 806 539 
Q 306 1169 306 2328 
Q 306 3491 806 4120 
Q 1306 4750 2228 4750 
Q 3147 4750 3647 4120 
Q 4147 3491 4147 2328 
z
" transform="scale(0.015625)"/>
      <path id="DejaVuSans-Bold-11" d="M 653 1209 
L 1778 1209 
L 1778 0 
L 653 0 
L 653 1209 
z
" transform="scale(0.015625)"/>
      <path id="DejaVuSans-Bold-16" d="M 2981 2516 
Q 3453 2394 3698 2092 
Q 3944 1791 3944 1325 
Q 3944 631 3412 270 
Q 2881 -91 1863 -91 
Q 1503 -91 1142 -33 
Q 781 25 428 141 
L 428 1069 
Q 766 900 1098 814 
Q 1431 728 1753 728 
Q 2231 728 2486 893 
Q 2741 1059 2741 1369 
Q 2741 1688 2480 1852 
Q 2219 2016 1709 2016 
L 1228 2016 
L 1228 2791 
L 1734 2791 
Q 2188 2791 2409 2933 
Q 2631 3075 2631 3366 
Q 2631 3634 2415 3781 
Q 2200 3928 1806 3928 
Q 1516 3928 1219 3862 
Q 922 3797 628 3669 
L 628 4550 
Q 984 4650 1334 4700 
Q 1684 4750 2022 4750 
Q 2931 4750 3382 4451 
Q 3834 4153 3834 3553 
Q 3834 3144 3618 2883 
Q 3403 2622 2981 2516 
z
" transform="scale(0.015625)"/>
      <path id="DejaVuSans-Bold-18" d="M 678 4666 
L 3669 4666 
L 3669 3781 
L 1638 3781 
L 1638 3059 
Q 1775 3097 1914 3117 
Q 2053 3138 2203 3138 
Q 3056 3138 3531 2711 
Q 4006 2284 4006 1522 
Q 4006 766 3489 337 
Q 2972 -91 2053 -91 
Q 1656 -91 1267 -14 
Q 878 63 494 219 
L 494 1166 
Q 875 947 1217 837 
Q 1559 728 1863 728 
Q 2300 728 2551 942 
Q 2803 1156 2803 1522 
Q 2803 1891 2551 2103 
Q 2300 2316 1863 2316 
Q 1603 2316 1309 2248 
Q 1016 2181 678 2041 
L 678 4666 
z
" transform="scale(0.015625)"/>
      <path id="DejaVuSans-Bold-3" transform="scale(0.015625)"/>
      <path id="DejaVuSans-Bold-57" d="M 1759 4494 
L 1759 3500 
L 2913 3500 
L 2913 2700 
L 1759 2700 
L 1759 1216 
Q 1759 972 1856 886 
Q 1953 800 2241 800 
L 2816 800 
L 2816 0 
L 1856 0 
Q 1194 0 917 276 
Q 641 553 641 1216 
L 641 2700 
L 84 2700 
L 84 3500 
L 641 3500 
L 641 4494 
L 1759 4494 
z
" transform="scale(0.015625)"/>
      <path id="DejaVuSans-Bold-52" d="M 2203 2784 
Q 1831 2784 1636 2517 
Q 1441 2250 1441 1747 
Q 1441 1244 1636 976 
Q 1831 709 2203 709 
Q 2569 709 2762 976 
Q 2956 1244 2956 1747 
Q 2956 2250 2762 2517 
Q 2569 2784 2203 2784 
z
M 2203 3584 
Q 3106 3584 3614 3096 
Q 4122 2609 4122 1747 
Q 4122 884 3614 396 
Q 3106 -91 2203 -91 
Q 1297 -91 786 396 
Q 275 884 275 1747 
Q 275 2609 786 3096 
Q 1297 3584 2203 3584 
z
" transform="scale(0.015625)"/>
      <path id="DejaVuSans-Bold-4e" d="M 538 4863 
L 1656 4863 
L 1656 2216 
L 2944 3500 
L 4244 3500 
L 2534 1894 
L 4378 0 
L 3022 0 
L 1656 1459 
L 1656 0 
L 538 0 
L 538 4863 
z
" transform="scale(0.015625)"/>
      <path id="DejaVuSans-Bold-12" d="M 1644 4666 
L 2338 4666 
L 691 -594 
L 0 -594 
L 1644 4666 
z
" transform="scale(0.015625)"/>
      <path id="DejaVuSans-Bold-56" d="M 3272 3391 
L 3272 2541 
Q 2913 2691 2578 2766 
Q 2244 2841 1947 2841 
Q 1628 2841 1473 2761 
Q 1319 2681 1319 2516 
Q 1319 2381 1436 2309 
Q 1553 2238 1856 2203 
L 2053 2175 
Q 2913 2066 3209 1816 
Q 3506 1566 3506 1031 
Q 3506 472 3093 190 
Q 2681 -91 1863 -91 
Q 1516 -91 1145 -36 
Q 775 19 384 128 
L 384 978 
Q 719 816 1070 734 
Q 1422 653 1784 653 
Q 2113 653 2278 743 
Q 2444 834 2444 1013 
Q 2444 1163 2330 1236 
Q 2216 1309 1875 1350 
L 1678 1375 
Q 931 1469 631 1722 
Q 331 1975 331 2491 
Q 331 3047 712 3315 
Q 1094 3584 1881 3584 
Q 2191 3584 2531 3537 
Q 2872 3491 3272 3391 
z
" transform="scale(0.015625)"/>
     </defs>
     <use xlink:href="#DejaVuSans-Bold-13"/>
     <use xlink:href="#DejaVuSans-Bold-11" transform="translate(69.578125 0)"/>
     <use xlink:href="#DejaVuSans-Bold-16" transform="translate(107.5625 0)"/>
     <use xlink:href="#DejaVuSans-Bold-18" transform="translate(177.140625 0)"/>
     <use xlink:href="#DejaVuSans-Bold-3" transform="translate(246.71875 0)"/>
     <use xlink:href="#DejaVuSans-Bold-57" transform="translate(281.53125 0)"/>
     <use xlink:href="#DejaVuSans-Bold-52" transform="translate(329.328125 0)"/>
     <use xlink:href="#DejaVuSans-Bold-4e" transform="translate(398.03125 0)"/>
     <use xlink:href="#DejaVuSans-Bold-12" transform="translate(464.53125 0)"/>
     <use xlink:href="#DejaVuSans-Bold-56" transform="translate(501.0625 0)"/>
    </g>
   </g>
   <g id="text_14">
    <!-- 1.81 tok/s -->
    <g style="fill: #e7ecf5" transform="translate(430.961532 67.448572) scale(0.12 -0.12)">
     <defs>
      <path id="DejaVuSans-Bold-14" d="M 750 831 
L 1813 831 
L 1813 3847 
L 722 3622 
L 722 4441 
L 1806 4666 
L 2950 4666 
L 2950 831 
L 4013 831 
L 4013 0 
L 750 0 
L 750 831 
z
" transform="scale(0.015625)"/>
      <path id="DejaVuSans-Bold-1b" d="M 2228 2088 
Q 1891 2088 1709 1903 
Q 1528 1719 1528 1375 
Q 1528 1031 1709 848 
Q 1891 666 2228 666 
Q 2563 666 2741 848 
Q 2919 1031 2919 1375 
Q 2919 1722 2741 1905 
Q 2563 2088 2228 2088 
z
M 1350 2484 
Q 925 2613 709 2878 
Q 494 3144 494 3541 
Q 494 4131 934 4440 
Q 1375 4750 2228 4750 
Q 3075 4750 3515 4442 
Q 3956 4134 3956 3541 
Q 3956 3144 3739 2878 
Q 3522 2613 3097 2484 
Q 3572 2353 3814 2058 
Q 4056 1763 4056 1313 
Q 4056 619 3595 264 
Q 3134 -91 2228 -91 
Q 1319 -91 855 264 
Q 391 619 391 1313 
Q 391 1763 633 2058 
Q 875 2353 1350 2484 
z
M 1631 3419 
Q 1631 3141 1786 2991 
Q 1941 2841 2228 2841 
Q 2509 2841 2662 2991 
Q 2816 3141 2816 3419 
Q 2816 3697 2662 3845 
Q 2509 3994 2228 3994 
Q 1941 3994 1786 3844 
Q 1631 3694 1631 3419 
z
" transform="scale(0.015625)"/>
     </defs>
     <use xlink:href="#DejaVuSans-Bold-14"/>
     <use xlink:href="#DejaVuSans-Bold-11" transform="translate(69.578125 0)"/>
     <use xlink:href="#DejaVuSans-Bold-1b" transform="translate(107.5625 0)"/>
     <use xlink:href="#DejaVuSans-Bold-14" transform="translate(177.140625 0)"/>
     <use xlink:href="#DejaVuSans-Bold-3" transform="translate(246.71875 0)"/>
     <use xlink:href="#DejaVuSans-Bold-57" transform="translate(281.53125 0)"/>
     <use xlink:href="#DejaVuSans-Bold-52" transform="translate(329.328125 0)"/>
     <use xlink:href="#DejaVuSans-Bold-4e" transform="translate(398.03125 0)"/>
     <use xlink:href="#DejaVuSans-Bold-12" transform="translate(464.53125 0)"/>
     <use xlink:href="#DejaVuSans-Bold-56" transform="translate(501.0625 0)"/>
    </g>
   </g>
   <g id="text_15">
    <!-- The price of exactness: same GPU, same 122B model, same prompt -->
    <g style="fill: #e7ecf5" transform="translate(122.143984 20.257637) scale(0.11 -0.11)">
     <defs>
      <path id="DejaVuSans-53" d="M 1159 525 
L 1159 -1331 
L 581 -1331 
L 581 3500 
L 1159 3500 
L 1159 2969 
Q 1341 3281 1617 3432 
Q 1894 3584 2278 3584 
Q 2916 3584 3314 3078 
Q 3713 2572 3713 1747 
Q 3713 922 3314 415 
Q 2916 -91 2278 -91 
Q 1894 -91 1617 61 
Q 1341 213 1159 525 
z
M 3116 1747 
Q 3116 2381 2855 2742 
Q 2594 3103 2138 3103 
Q 1681 3103 1420 2742 
Q 1159 2381 1159 1747 
Q 1159 1113 1420 752 
Q 1681 391 2138 391 
Q 2594 391 2855 752 
Q 3116 1113 3116 1747 
z
" transform="scale(0.015625)"/>
      <path id="DejaVuSans-1d" d="M 750 794 
L 1409 794 
L 1409 0 
L 750 0 
L 750 794 
z
M 750 3309 
L 1409 3309 
L 1409 2516 
L 750 2516 
L 750 3309 
z
" transform="scale(0.015625)"/>
      <path id="DejaVuSans-50" d="M 3328 2828 
Q 3544 3216 3844 3400 
Q 4144 3584 4550 3584 
Q 5097 3584 5394 3201 
Q 5691 2819 5691 2113 
L 5691 0 
L 5113 0 
L 5113 2094 
Q 5113 2597 4934 2840 
Q 4756 3084 4391 3084 
Q 3944 3084 3684 2787 
Q 3425 2491 3425 1978 
L 3425 0 
L 2847 0 
L 2847 2094 
Q 2847 2600 2669 2842 
Q 2491 3084 2119 3084 
Q 1678 3084 1418 2786 
Q 1159 2488 1159 1978 
L 1159 0 
L 581 0 
L 581 3500 
L 1159 3500 
L 1159 2956 
Q 1356 3278 1631 3431 
Q 1906 3584 2284 3584 
Q 2666 3584 2933 3390 
Q 3200 3197 3328 2828 
z
" transform="scale(0.015625)"/>
      <path id="DejaVuSans-2a" d="M 3809 666 
L 3809 1919 
L 2778 1919 
L 2778 2438 
L 4434 2438 
L 4434 434 
Q 4069 175 3628 42 
Q 3188 -91 2688 -91 
Q 1594 -91 976 548 
Q 359 1188 359 2328 
Q 359 3472 976 4111 
Q 1594 4750 2688 4750 
Q 3144 4750 3555 4637 
Q 3966 4525 4313 4306 
L 4313 3634 
Q 3963 3931 3569 4081 
Q 3175 4231 2741 4231 
Q 1884 4231 1454 3753 
Q 1025 3275 1025 2328 
Q 1025 1384 1454 906 
Q 1884 428 2741 428 
Q 3075 428 3337 486 
Q 3600 544 3809 666 
z
" transform="scale(0.015625)"/>
      <path id="DejaVuSans-33" d="M 1259 4147 
L 1259 2394 
L 2053 2394 
Q 2494 2394 2734 2622 
Q 2975 2850 2975 3272 
Q 2975 3691 2734 3919 
Q 2494 4147 2053 4147 
L 1259 4147 
z
M 628 4666 
L 2053 4666 
Q 2838 4666 3239 4311 
Q 3641 3956 3641 3272 
Q 3641 2581 3239 2228 
Q 2838 1875 2053 1875 
L 1259 1875 
L 1259 0 
L 628 0 
L 628 4666 
z
" transform="scale(0.015625)"/>
      <path id="DejaVuSans-38" d="M 556 4666 
L 1191 4666 
L 1191 1831 
Q 1191 1081 1462 751 
Q 1734 422 2344 422 
Q 2950 422 3222 751 
Q 3494 1081 3494 1831 
L 3494 4666 
L 4128 4666 
L 4128 1753 
Q 4128 841 3676 375 
Q 3225 -91 2344 -91 
Q 1459 -91 1007 375 
Q 556 841 556 1753 
L 556 4666 
z
" transform="scale(0.015625)"/>
     </defs>
     <use xlink:href="#DejaVuSans-37"/>
     <use xlink:href="#DejaVuSans-4b" transform="translate(61.078125 0)"/>
     <use xlink:href="#DejaVuSans-48" transform="translate(124.453125 0)"/>
     <use xlink:href="#DejaVuSans-3" transform="translate(185.984375 0)"/>
     <use xlink:href="#DejaVuSans-53" transform="translate(217.765625 0)"/>
     <use xlink:href="#DejaVuSans-55" transform="translate(281.25 0)"/>
     <use xlink:href="#DejaVuSans-4c" transform="translate(322.359375 0)"/>
     <use xlink:href="#DejaVuSans-46" transform="translate(350.140625 0)"/>
     <use xlink:href="#DejaVuSans-48" transform="translate(405.125 0)"/>
     <use xlink:href="#DejaVuSans-3" transform="translate(466.65625 0)"/>
     <use xlink:href="#DejaVuSans-52" transform="translate(498.4375 0)"/>
     <use xlink:href="#DejaVuSans-49" transform="translate(559.625 0)"/>
     <use xlink:href="#DejaVuSans-3" transform="translate(594.828125 0)"/>
     <use xlink:href="#DejaVuSans-48" transform="translate(626.609375 0)"/>
     <use xlink:href="#DejaVuSans-5b" transform="translate(686.390625 0)"/>
     <use xlink:href="#DejaVuSans-44" transform="translate(745.578125 0)"/>
     <use xlink:href="#DejaVuSans-46" transform="translate(806.859375 0)"/>
     <use xlink:href="#DejaVuSans-57" transform="translate(861.84375 0)"/>
     <use xlink:href="#DejaVuSans-51" transform="translate(901.046875 0)"/>
     <use xlink:href="#DejaVuSans-48" transform="translate(964.421875 0)"/>
     <use xlink:href="#DejaVuSans-56" transform="translate(1025.953125 0)"/>
     <use xlink:href="#DejaVuSans-56" transform="translate(1078.046875 0)"/>
     <use xlink:href="#DejaVuSans-1d" transform="translate(1130.140625 0)"/>
     <use xlink:href="#DejaVuSans-3" transform="translate(1163.828125 0)"/>
     <use xlink:href="#DejaVuSans-56" transform="translate(1195.609375 0)"/>
     <use xlink:href="#DejaVuSans-44" transform="translate(1247.703125 0)"/>
     <use xlink:href="#DejaVuSans-50" transform="translate(1308.984375 0)"/>
     <use xlink:href="#DejaVuSans-48" transform="translate(1406.390625 0)"/>
     <use xlink:href="#DejaVuSans-3" transform="translate(1467.921875 0)"/>
     <use xlink:href="#DejaVuSans-2a" transform="translate(1499.703125 0)"/>
     <use xlink:href="#DejaVuSans-33" transform="translate(1577.1875 0)"/>
     <use xlink:href="#DejaVuSans-38" transform="translate(1637.484375 0)"/>
     <use xlink:href="#DejaVuSans-f" transform="translate(1710.671875 0)"/>
     <use xlink:href="#DejaVuSans-3" transform="translate(1742.453125 0)"/>
     <use xlink:href="#DejaVuSans-56" transform="translate(1774.234375 0)"/>
     <use xlink:href="#DejaVuSans-44" transform="translate(1826.328125 0)"/>
     <use xlink:href="#DejaVuSans-50" transform="translate(1887.609375 0)"/>
     <use xlink:href="#DejaVuSans-48" transform="translate(1985.015625 0)"/>
     <use xlink:href="#DejaVuSans-3" transform="translate(2046.546875 0)"/>
     <use xlink:href="#DejaVuSans-14" transform="translate(2078.328125 0)"/>
     <use xlink:href="#DejaVuSans-15" transform="translate(2141.953125 0)"/>
     <use xlink:href="#DejaVuSans-15" transform="translate(2205.578125 0)"/>
     <use xlink:href="#DejaVuSans-25" transform="translate(2269.203125 0)"/>
     <use xlink:href="#DejaVuSans-3" transform="translate(2337.8125 0)"/>
     <use xlink:href="#DejaVuSans-50" transform="translate(2369.59375 0)"/>
     <use xlink:href="#DejaVuSans-52" transform="translate(2467 0)"/>
     <use xlink:href="#DejaVuSans-47" transform="translate(2528.1875 0)"/>
     <use xlink:href="#DejaVuSans-48" transform="translate(2591.671875 0)"/>
     <use xlink:href="#DejaVuSans-4f" transform="translate(2653.203125 0)"/>
     <use xlink:href="#DejaVuSans-f" transform="translate(2680.984375 0)"/>
     <use xlink:href="#DejaVuSans-3" transform="translate(2712.765625 0)"/>
     <use xlink:href="#DejaVuSans-56" transform="translate(2744.546875 0)"/>
     <use xlink:href="#DejaVuSans-44" transform="translate(2796.640625 0)"/>
     <use xlink:href="#DejaVuSans-50" transform="translate(2857.921875 0)"/>
     <use xlink:href="#DejaVuSans-48" transform="translate(2955.328125 0)"/>
     <use xlink:href="#DejaVuSans-3" transform="translate(3016.859375 0)"/>
     <use xlink:href="#DejaVuSans-53" transform="translate(3048.640625 0)"/>
     <use xlink:href="#DejaVuSans-55" transform="translate(3112.125 0)"/>
     <use xlink:href="#DejaVuSans-52" transform="translate(3151.03125 0)"/>
     <use xlink:href="#DejaVuSans-50" transform="translate(3212.21875 0)"/>
     <use xlink:href="#DejaVuSans-53" transform="translate(3309.625 0)"/>
     <use xlink:href="#DejaVuSans-57" transform="translate(3373.109375 0)"/>
    </g>
    <!-- RTX 4060 Ti 16 GB · Qwen3.5-122B-A10B · experts streamed from NVMe -->
    <g style="fill: #e7ecf5" transform="translate(110.046562 33.460645) scale(0.11 -0.11)">
     <defs>
      <path id="DejaVuSans-35" d="M 2841 2188 
Q 3044 2119 3236 1894 
Q 3428 1669 3622 1275 
L 4263 0 
L 3584 0 
L 2988 1197 
Q 2756 1666 2539 1819 
Q 2322 1972 1947 1972 
L 1259 1972 
L 1259 0 
L 628 0 
L 628 4666 
L 2053 4666 
Q 2853 4666 3247 4331 
Q 3641 3997 3641 3322 
Q 3641 2881 3436 2590 
Q 3231 2300 2841 2188 
z
M 1259 4147 
L 1259 2491 
L 2053 2491 
Q 2509 2491 2742 2702 
Q 2975 2913 2975 3322 
Q 2975 3731 2742 3939 
Q 2509 4147 2053 4147 
L 1259 4147 
z
" transform="scale(0.015625)"/>
      <path id="DejaVuSans-3b" d="M 403 4666 
L 1081 4666 
L 2241 2931 
L 3406 4666 
L 4084 4666 
L 2584 2425 
L 4184 0 
L 3506 0 
L 2194 1984 
L 872 0 
L 191 0 
L 1856 2491 
L 403 4666 
z
" transform="scale(0.015625)"/>
      <path id="DejaVuSans-79" d="M 684 2619 
L 1344 2619 
L 1344 1825 
L 684 1825 
L 684 2619 
z
" transform="scale(0.015625)"/>
      <path id="DejaVuSans-34" d="M 2522 4238 
Q 1834 4238 1429 3725 
Q 1025 3213 1025 2328 
Q 1025 1447 1429 934 
Q 1834 422 2522 422 
Q 3209 422 3611 934 
Q 4013 1447 4013 2328 
Q 4013 3213 3611 3725 
Q 3209 4238 2522 4238 
z
M 3406 84 
L 4238 -825 
L 3475 -825 
L 2784 -78 
Q 2681 -84 2626 -87 
Q 2572 -91 2522 -91 
Q 1538 -91 948 567 
Q 359 1225 359 2328 
Q 359 3434 948 4092 
Q 1538 4750 2522 4750 
Q 3503 4750 4090 4092 
Q 4678 3434 4678 2328 
Q 4678 1516 4351 937 
Q 4025 359 3406 84 
z
" transform="scale(0.015625)"/>
      <path id="DejaVuSans-16" d="M 2597 2516 
Q 3050 2419 3304 2112 
Q 3559 1806 3559 1356 
Q 3559 666 3084 287 
Q 2609 -91 1734 -91 
Q 1441 -91 1130 -33 
Q 819 25 488 141 
L 488 750 
Q 750 597 1062 519 
Q 1375 441 1716 441 
Q 2309 441 2620 675 
Q 2931 909 2931 1356 
Q 2931 1769 2642 2001 
Q 2353 2234 1838 2234 
L 1294 2234 
L 1294 2753 
L 1863 2753 
Q 2328 2753 2575 2939 
Q 2822 3125 2822 3475 
Q 2822 3834 2567 4026 
Q 2313 4219 1838 4219 
Q 1578 4219 1281 4162 
Q 984 4106 628 3988 
L 628 4550 
Q 988 4650 1302 4700 
Q 1616 4750 1894 4750 
Q 2613 4750 3031 4423 
Q 3450 4097 3450 3541 
Q 3450 3153 3228 2886 
Q 3006 2619 2597 2516 
z
" transform="scale(0.015625)"/>
      <path id="DejaVuSans-24" d="M 2188 4044 
L 1331 1722 
L 3047 1722 
L 2188 4044 
z
M 1831 4666 
L 2547 4666 
L 4325 0 
L 3669 0 
L 3244 1197 
L 1141 1197 
L 716 0 
L 50 0 
L 1831 4666 
z
" transform="scale(0.015625)"/>
      <path id="DejaVuSans-31" d="M 628 4666 
L 1478 4666 
L 3547 763 
L 3547 4666 
L 4159 4666 
L 4159 0 
L 3309 0 
L 1241 3903 
L 1241 0 
L 628 0 
L 628 4666 
z
" transform="scale(0.015625)"/>
      <path id="DejaVuSans-39" d="M 1831 0 
L 50 4666 
L 709 4666 
L 2188 738 
L 3669 4666 
L 4325 4666 
L 2547 0 
L 1831 0 
z
" transform="scale(0.015625)"/>
      <path id="DejaVuSans-30" d="M 628 4666 
L 1569 4666 
L 2759 1491 
L 3956 4666 
L 4897 4666 
L 4897 0 
L 4281 0 
L 4281 4097 
L 3078 897 
L 2444 897 
L 1241 4097 
L 1241 0 
L 628 0 
L 628 4666 
z
" transform="scale(0.015625)"/>
     </defs>
     <use xlink:href="#DejaVuSans-35"/>
     <use xlink:href="#DejaVuSans-37" transform="translate(62.203125 0)"/>
     <use xlink:href="#DejaVuSans-3b" transform="translate(123.28125 0)"/>
     <use xlink:href="#DejaVuSans-3" transform="translate(191.78125 0)"/>
     <use xlink:href="#DejaVuSans-17" transform="translate(223.5625 0)"/>
     <use xlink:href="#DejaVuSans-13" transform="translate(287.1875 0)"/>
     <use xlink:href="#DejaVuSans-19" transform="translate(350.8125 0)"/>
     <use xlink:href="#DejaVuSans-13" transform="translate(414.4375 0)"/>
     <use xlink:href="#DejaVuSans-3" transform="translate(478.0625 0)"/>
     <use xlink:href="#DejaVuSans-37" transform="translate(509.84375 0)"/>
     <use xlink:href="#DejaVuSans-4c" transform="translate(567.84375 0)"/>
     <use xlink:href="#DejaVuSans-3" transform="translate(595.625 0)"/>
     <use xlink:href="#DejaVuSans-14" transform="translate(627.40625 0)"/>
     <use xlink:href="#DejaVuSans-19" transform="translate(691.03125 0)"/>
     <use xlink:href="#DejaVuSans-3" transform="translate(754.65625 0)"/>
     <use xlink:href="#DejaVuSans-2a" transform="translate(786.4375 0)"/>
     <use xlink:href="#DejaVuSans-25" transform="translate(863.921875 0)"/>
     <use xlink:href="#DejaVuSans-3" transform="translate(932.53125 0)"/>
     <use xlink:href="#DejaVuSans-79" transform="translate(964.3125 0)"/>
     <use xlink:href="#DejaVuSans-3" transform="translate(996.09375 0)"/>
     <use xlink:href="#DejaVuSans-34" transform="translate(1027.875 0)"/>
     <use xlink:href="#DejaVuSans-5a" transform="translate(1106.59375 0)"/>
     <use xlink:href="#DejaVuSans-48" transform="translate(1188.375 0)"/>
     <use xlink:href="#DejaVuSans-51" transform="translate(1249.90625 0)"/>
     <use xlink:href="#DejaVuSans-16" transform="translate(1313.28125 0)"/>
     <use xlink:href="#DejaVuSans-11" transform="translate(1376.90625 0)"/>
     <use xlink:href="#DejaVuSans-18" transform="translate(1408.6875 0)"/>
     <use xlink:href="#DejaVuSans-10" transform="translate(1472.3125 0)"/>
     <use xlink:href="#DejaVuSans-14" transform="translate(1508.390625 0)"/>
     <use xlink:href="#DejaVuSans-15" transform="translate(1572.015625 0)"/>
     <use xlink:href="#DejaVuSans-15" transform="translate(1635.640625 0)"/>
     <use xlink:href="#DejaVuSans-25" transform="translate(1699.265625 0)"/>
     <use xlink:href="#DejaVuSans-10" transform="translate(1767.875 0)"/>
     <use xlink:href="#DejaVuSans-24" transform="translate(1801.75 0)"/>
     <use xlink:href="#DejaVuSans-14" transform="translate(1870.15625 0)"/>
     <use xlink:href="#DejaVuSans-13" transform="translate(1933.78125 0)"/>
     <use xlink:href="#DejaVuSans-25" transform="translate(1997.40625 0)"/>
     <use xlink:href="#DejaVuSans-3" transform="translate(2066.015625 0)"/>
     <use xlink:href="#DejaVuSans-79" transform="translate(2097.796875 0)"/>
     <use xlink:href="#DejaVuSans-3" transform="translate(2129.578125 0)"/>
     <use xlink:href="#DejaVuSans-48" transform="translate(2161.359375 0)"/>
     <use xlink:href="#DejaVuSans-5b" transform="translate(2221.140625 0)"/>
     <use xlink:href="#DejaVuSans-53" transform="translate(2280.328125 0)"/>
     <use xlink:href="#DejaVuSans-48" transform="translate(2343.8125 0)"/>
     <use xlink:href="#DejaVuSans-55" transform="translate(2405.34375 0)"/>
     <use xlink:href="#DejaVuSans-57" transform="translate(2446.453125 0)"/>
     <use xlink:href="#DejaVuSans-56" transform="translate(2485.65625 0)"/>
     <use xlink:href="#DejaVuSans-3" transform="translate(2537.75 0)"/>
     <use xlink:href="#DejaVuSans-56" transform="translate(2569.53125 0)"/>
     <use xlink:href="#DejaVuSans-57" transform="translate(2621.625 0)"/>
     <use xlink:href="#DejaVuSans-55" transform="translate(2660.828125 0)"/>
     <use xlink:href="#DejaVuSans-48" transform="translate(2699.734375 0)"/>
     <use xlink:href="#DejaVuSans-44" transform="translate(2761.265625 0)"/>
     <use xlink:href="#DejaVuSans-50" transform="translate(2822.546875 0)"/>
     <use xlink:href="#DejaVuSans-48" transform="translate(2919.953125 0)"/>
     <use xlink:href="#DejaVuSans-47" transform="translate(2981.484375 0)"/>
     <use xlink:href="#DejaVuSans-3" transform="translate(3044.96875 0)"/>
     <use xlink:href="#DejaVuSans-49" transform="translate(3076.75 0)"/>
     <use xlink:href="#DejaVuSans-55" transform="translate(3111.953125 0)"/>
     <use xlink:href="#DejaVuSans-52" transform="translate(3150.859375 0)"/>
     <use xlink:href="#DejaVuSans-50" transform="translate(3212.046875 0)"/>
     <use xlink:href="#DejaVuSans-3" transform="translate(3309.453125 0)"/>
     <use xlink:href="#DejaVuSans-31" transform="translate(3341.234375 0)"/>
     <use xlink:href="#DejaVuSans-39" transform="translate(3416.046875 0)"/>
     <use xlink:href="#DejaVuSans-30" transform="translate(3484.453125 0)"/>
     <use xlink:href="#DejaVuSans-48" transform="translate(3570.734375 0)"/>
    </g>
   </g>
  </g>
  <g id="text_16">
   <!-- measured 2026-07-20, validation/bench_repo.py · exact ≈ 19 GB verified NVMe reads per token -->
   <g style="fill: #8b94a8" transform="translate(95.616875 327.888) scale(0.08 -0.08)">
    <defs>
     <path id="DejaVuSans-59" d="M 191 3500 
L 800 3500 
L 1894 563 
L 2988 3500 
L 3597 3500 
L 2284 0 
L 1503 0 
L 191 3500 
z
" transform="scale(0.015625)"/>
     <path id="DejaVuSans-42" d="M 3263 -1063 
L 3263 -1509 
L -63 -1509 
L -63 -1063 
L 3263 -1063 
z
" transform="scale(0.015625)"/>
     <path id="DejaVuSans-5c" d="M 2059 -325 
Q 1816 -950 1584 -1140 
Q 1353 -1331 966 -1331 
L 506 -1331 
L 506 -850 
L 844 -850 
Q 1081 -850 1212 -737 
Q 1344 -625 1503 -206 
L 1606 56 
L 191 3500 
L 800 3500 
L 1894 763 
L 2988 3500 
L 3597 3500 
L 2059 -325 
z
" transform="scale(0.015625)"/>
     <path id="DejaVuSans-cd2" d="M 4684 1947 
L 4684 1388 
Q 4356 1144 4076 1036 
Q 3797 928 3494 928 
Q 3150 928 2694 1113 
Q 2663 1125 2641 1134 
Q 2622 1141 2575 1159 
Q 2091 1350 1797 1350 
Q 1522 1350 1253 1231 
Q 984 1113 678 850 
L 678 1409 
Q 1006 1653 1286 1761 
Q 1566 1869 1869 1869 
Q 2213 1869 2672 1684 
Q 2706 1669 2722 1663 
Q 2741 1656 2788 1638 
Q 3272 1447 3566 1447 
Q 3834 1447 4098 1564 
Q 4363 1681 4684 1947 
z
M 4684 3163 
L 4684 2606 
Q 4356 2359 4076 2251 
Q 3797 2144 3494 2144 
Q 3150 2144 2694 2328 
Q 2663 2341 2641 2350 
Q 2622 2356 2575 2375 
Q 2091 2566 1797 2566 
Q 1522 2566 1253 2447 
Q 984 2328 678 2069 
L 678 2625 
Q 1006 2869 1286 2976 
Q 1566 3084 1869 3084 
Q 2213 3084 2672 2900 
Q 2703 2888 2719 2881 
Q 2741 2872 2788 2853 
Q 3272 2663 3566 2663 
Q 3834 2663 4098 2780 
Q 4363 2897 4684 3163 
z
" transform="scale(0.015625)"/>
     <path id="DejaVuSans-1c" d="M 703 97 
L 703 672 
Q 941 559 1184 500 
Q 1428 441 1663 441 
Q 2288 441 2617 861 
Q 2947 1281 2994 2138 
Q 2813 1869 2534 1725 
Q 2256 1581 1919 1581 
Q 1219 1581 811 2004 
Q 403 2428 403 3163 
Q 403 3881 828 4315 
Q 1253 4750 1959 4750 
Q 2769 4750 3195 4129 
Q 3622 3509 3622 2328 
Q 3622 1225 3098 567 
Q 2575 -91 1691 -91 
Q 1453 -91 1209 -44 
Q 966 3 703 97 
z
M 1959 2075 
Q 2384 2075 2632 2365 
Q 2881 2656 2881 3163 
Q 2881 3666 2632 3958 
Q 2384 4250 1959 4250 
Q 1534 4250 1286 3958 
Q 1038 3666 1038 3163 
Q 1038 2656 1286 2365 
Q 1534 2075 1959 2075 
z
" transform="scale(0.015625)"/>
     <path id="DejaVuSans-13af" d="M 3431 3500 
L 3431 0 
L 2853 0 
L 2853 3053 
L 1275 3053 
L 1275 0 
L 697 0 
L 697 3053 
L 147 3053 
L 147 3500 
L 697 3500 
L 697 3744 
Q 697 4316 967 4589 
Q 1238 4863 1797 4863 
L 2375 4863 
L 2375 4384 
L 1825 4384 
Q 1516 4384 1395 4259 
Q 1275 4134 1275 3809 
L 1275 3500 
L 3431 3500 
z
M 2853 4856 
L 3431 4856 
L 3431 4128 
L 2853 4128 
L 2853 4856 
z
" transform="scale(0.015625)"/>
    </defs>
    <use xlink:href="#DejaVuSans-50"/>
    <use xlink:href="#DejaVuSans-48" transform="translate(97.40625 0)"/>
    <use xlink:href="#DejaVuSans-44" transform="translate(158.9375 0)"/>
    <use xlink:href="#DejaVuSans-56" transform="translate(220.21875 0)"/>
    <use xlink:href="#DejaVuSans-58" transform="translate(272.3125 0)"/>
    <use xlink:href="#DejaVuSans-55" transform="translate(335.6875 0)"/>
    <use xlink:href="#DejaVuSans-48" transform="translate(374.59375 0)"/>
    <use xlink:href="#DejaVuSans-47" transform="translate(436.125 0)"/>
    <use xlink:href="#DejaVuSans-3" transform="translate(499.609375 0)"/>
    <use xlink:href="#DejaVuSans-15" transform="translate(531.390625 0)"/>
    <use xlink:href="#DejaVuSans-13" transform="translate(595.015625 0)"/>
    <use xlink:href="#DejaVuSans-15" transform="translate(658.640625 0)"/>
    <use xlink:href="#DejaVuSans-19" transform="translate(722.265625 0)"/>
    <use xlink:href="#DejaVuSans-10" transform="translate(785.890625 0)"/>
    <use xlink:href="#DejaVuSans-13" transform="translate(821.96875 0)"/>
    <use xlink:href="#DejaVuSans-1a" transform="translate(885.59375 0)"/>
    <use xlink:href="#DejaVuSans-10" transform="translate(949.21875 0)"/>
    <use xlink:href="#DejaVuSans-15" transform="translate(985.296875 0)"/>
    <use xlink:href="#DejaVuSans-13" transform="translate(1048.921875 0)"/>
    <use xlink:href="#DejaVuSans-f" transform="translate(1112.546875 0)"/>
    <use xlink:href="#DejaVuSans-3" transform="translate(1144.328125 0)"/>
    <use xlink:href="#DejaVuSans-59" transform="translate(1176.109375 0)"/>
    <use xlink:href="#DejaVuSans-44" transform="translate(1235.296875 0)"/>
    <use xlink:href="#DejaVuSans-4f" transform="translate(1296.578125 0)"/>
    <use xlink:href="#DejaVuSans-4c" transform="translate(1324.359375 0)"/>
    <use xlink:href="#DejaVuSans-47" transform="translate(1352.140625 0)"/>
    <use xlink:href="#DejaVuSans-44" transform="translate(1415.625 0)"/>
    <use xlink:href="#DejaVuSans-57" transform="translate(1476.90625 0)"/>
    <use xlink:href="#DejaVuSans-4c" transform="translate(1516.109375 0)"/>
    <use xlink:href="#DejaVuSans-52" transform="translate(1543.890625 0)"/>
    <use xlink:href="#DejaVuSans-51" transform="translate(1605.078125 0)"/>
    <use xlink:href="#DejaVuSans-12" transform="translate(1668.453125 0)"/>
    <use xlink:href="#DejaVuSans-45" transform="translate(1702.140625 0)"/>
    <use xlink:href="#DejaVuSans-48" transform="translate(1765.625 0)"/>
    <use xlink:href="#DejaVuSans-51" transform="translate(1827.15625 0)"/>
    <use xlink:href="#DejaVuSans-46" transform="translate(1890.53125 0)"/>
    <use xlink:href="#DejaVuSans-4b" transform="translate(1945.515625 0)"/>
    <use xlink:href="#DejaVuSans-42" transform="translate(2008.890625 0)"/>
    <use xlink:href="#DejaVuSans-55" transform="translate(2058.890625 0)"/>
    <use xlink:href="#DejaVuSans-48" transform="translate(2097.796875 0)"/>
    <use xlink:href="#DejaVuSans-53" transform="translate(2159.328125 0)"/>
    <use xlink:href="#DejaVuSans-52" transform="translate(2222.8125 0)"/>
    <use xlink:href="#DejaVuSans-11" transform="translate(2282.25 0)"/>
    <use xlink:href="#DejaVuSans-53" transform="translate(2314.03125 0)"/>
    <use xlink:href="#DejaVuSans-5c" transform="translate(2377.515625 0)"/>
    <use xlink:href="#DejaVuSans-3" transform="translate(2436.703125 0)"/>
    <use xlink:href="#DejaVuSans-79" transform="translate(2468.484375 0)"/>
    <use xlink:href="#DejaVuSans-3" transform="translate(2500.265625 0)"/>
    <use xlink:href="#DejaVuSans-48" transform="translate(2532.046875 0)"/>
    <use xlink:href="#DejaVuSans-5b" transform="translate(2591.828125 0)"/>
    <use xlink:href="#DejaVuSans-44" transform="translate(2651.015625 0)"/>
    <use xlink:href="#DejaVuSans-46" transform="translate(2712.296875 0)"/>
    <use xlink:href="#DejaVuSans-57" transform="translate(2767.28125 0)"/>
    <use xlink:href="#DejaVuSans-3" transform="translate(2806.484375 0)"/>
    <use xlink:href="#DejaVuSans-cd2" transform="translate(2838.265625 0)"/>
    <use xlink:href="#DejaVuSans-3" transform="translate(2922.0625 0)"/>
    <use xlink:href="#DejaVuSans-14" transform="translate(2953.84375 0)"/>
    <use xlink:href="#DejaVuSans-1c" transform="translate(3017.46875 0)"/>
    <use xlink:href="#DejaVuSans-3" transform="translate(3081.09375 0)"/>
    <use xlink:href="#DejaVuSans-2a" transform="translate(3112.875 0)"/>
    <use xlink:href="#DejaVuSans-25" transform="translate(3190.359375 0)"/>
    <use xlink:href="#DejaVuSans-3" transform="translate(3258.96875 0)"/>
    <use xlink:href="#DejaVuSans-59" transform="translate(3290.75 0)"/>
    <use xlink:href="#DejaVuSans-48" transform="translate(3349.9375 0)"/>
    <use xlink:href="#DejaVuSans-55" transform="translate(3411.46875 0)"/>
    <use xlink:href="#DejaVuSans-4c" transform="translate(3452.578125 0)"/>
    <use xlink:href="#DejaVuSans-13af" transform="translate(3480.359375 0)"/>
    <use xlink:href="#DejaVuSans-48" transform="translate(3543.34375 0)"/>
    <use xlink:href="#DejaVuSans-47" transform="translate(3604.875 0)"/>
    <use xlink:href="#DejaVuSans-3" transform="translate(3668.359375 0)"/>
    <use xlink:href="#DejaVuSans-31" transform="translate(3700.140625 0)"/>
    <use xlink:href="#DejaVuSans-39" transform="translate(3774.953125 0)"/>
    <use xlink:href="#DejaVuSans-30" transform="translate(3843.359375 0)"/>
    <use xlink:href="#DejaVuSans-48" transform="translate(3929.640625 0)"/>
    <use xlink:href="#DejaVuSans-3" transform="translate(3991.171875 0)"/>
    <use xlink:href="#DejaVuSans-55" transform="translate(4022.953125 0)"/>
    <use xlink:href="#DejaVuSans-48" transform="translate(4061.859375 0)"/>
    <use xlink:href="#DejaVuSans-44" transform="translate(4123.390625 0)"/>
    <use xlink:href="#DejaVuSans-47" transform="translate(4184.671875 0)"/>
    <use xlink:href="#DejaVuSans-56" transform="translate(4248.15625 0)"/>
    <use xlink:href="#DejaVuSans-3" transform="translate(4300.25 0)"/>
    <use xlink:href="#DejaVuSans-53" transform="translate(4332.03125 0)"/>
    <use xlink:href="#DejaVuSans-48" transform="translate(4395.515625 0)"/>
    <use xlink:href="#DejaVuSans-55" transform="translate(4457.046875 0)"/>
    <use xlink:href="#DejaVuSans-3" transform="translate(4498.15625 0)"/>
    <use xlink:href="#DejaVuSans-57" transform="translate(4529.9375 0)"/>
    <use xlink:href="#DejaVuSans-52" transform="translate(4569.140625 0)"/>
    <use xlink:href="#DejaVuSans-4e" transform="translate(4630.328125 0)"/>
    <use xlink:href="#DejaVuSans-48" transform="translate(4684.671875 0)"/>
    <use xlink:href="#DejaVuSans-51" transform="translate(4746.203125 0)"/>
   </g>
  </g>
 </g>
 <defs>
  <clipPath id="p5325269961">
   <rect x="54.442344" y="39.460645" width="510.757656" height="236.042762"/>
  </clipPath>
 </defs>
</svg>
